<?xml version="1.0" standalone="no"?>
<!DOCTYPE svg PUBLIC "-//W3C//DTD SVG 20010904//EN"
 "http://www.w3.org/TR/2001/REC-SVG-20010904/DTD/svg10.dtd">
<svg version="1.0" xmlns="http://www.w3.org/2000/svg"
 width="890.000000pt" height="368.000000pt" viewBox="0 0 890.000000 368.000000"
 preserveAspectRatio="xMidYMid meet">

<g transform="translate(0.000000,368.000000) scale(0.100000,-0.100000)"
fill="#000000" stroke="none">
<path d="M2676 2534 c-14 -14 -16 -67 -14 -467 l3 -452 57 -3 c55 -3 58 -2 64
24 4 14 5 190 2 390 -3 201 -3 362 -1 360 3 -2 92 -168 199 -368 107 -200 206
-373 220 -385 19 -18 37 -23 79 -23 91 0 86 -32 83 483 l-3 452 -51 3 c-35 2
-54 -2 -63 -12 -9 -11 -11 -103 -9 -380 2 -201 2 -366 1 -366 -2 0 -21 37 -44
83 -22 45 -109 209 -192 365 -117 220 -157 287 -178 298 -38 19 -133 19 -153
-2z"/>
<path d="M3544 2536 c-3 -8 -4 -166 -2 -353 5 -384 7 -396 84 -482 68 -76 124
-96 264 -96 103 0 121 3 171 26 103 48 161 130 180 251 5 35 8 198 7 363 l-3
300 -60 0 -60 0 -5 -345 -5 -345 -25 -45 c-31 -55 -75 -86 -144 -100 -101 -21
-196 18 -244 98 l-27 47 -5 345 -5 345 -58 3 c-43 2 -59 -1 -63 -12z"/>
<path d="M5044 2536 c-6 -17 241 -894 258 -913 7 -8 36 -13 79 -13 55 0 70 3
77 18 5 9 49 173 98 365 58 230 91 341 96 328 3 -11 48 -169 99 -353 50 -183
96 -339 101 -345 7 -8 36 -13 78 -13 42 0 71 5 77 13 16 21 265 905 258 917
-3 5 -31 10 -60 10 l-54 0 -15 -52 c-9 -29 -56 -208 -106 -397 -50 -190 -92
-346 -93 -348 -2 -1 -50 167 -107 375 -56 207 -107 387 -111 400 -8 21 -14 23
-71 20 l-62 -3 -100 -393 c-55 -216 -103 -389 -107 -385 -4 5 -51 172 -104
373 -54 201 -101 375 -106 388 -7 19 -16 22 -64 22 -39 0 -57 -4 -61 -14z"/>
<path d="M6593 2538 c-21 -27 -333 -912 -325 -920 5 -5 33 -8 63 -6 l54 3 28
80 c15 44 34 99 43 123 l16 42 192 0 193 0 33 -97 c53 -156 50 -153 120 -153
51 0 60 3 60 18 0 9 -73 220 -163 467 l-162 450 -71 3 c-49 2 -74 -1 -81 -10z
m151 -351 c42 -120 76 -220 76 -223 0 -2 -72 -4 -159 -4 l-160 0 69 198 c80
231 89 256 94 251 2 -2 38 -102 80 -222z"/>
<path d="M7050 2530 c0 -11 60 -138 133 -283 l132 -262 5 -185 5 -185 58 -3
57 -3 0 176 0 175 141 281 c77 155 138 288 135 296 -4 10 -20 13 -63 11 l-57
-3 -52 -105 c-29 -58 -76 -158 -105 -224 l-53 -118 -15 33 c-40 91 -186 396
-194 407 -6 7 -33 12 -68 12 -52 0 -59 -2 -59 -20z"/>
<path d="M1495 2362 c-25 -6 -29 -12 -27 -32 9 -62 64 -100 145 -100 74 0 149
-18 223 -55 175 -86 284 -248 300 -447 8 -96 23 -132 64 -153 59 -30 67 -23
75 63 22 262 -108 507 -345 649 -75 45 -189 75 -300 79 -58 1 -118 0 -135 -4z"/>
<path d="M1503 2089 c-37 -11 -44 -39 -17 -77 22 -32 45 -41 130 -52 86 -11
145 -40 189 -92 39 -45 54 -87 65 -171 8 -64 13 -75 44 -104 70 -64 92 -34 90
117 -2 114 -31 179 -118 266 -54 54 -85 76 -131 94 -67 26 -199 36 -252 19z"/>
<path d="M1535 1812 c-39 -25 -54 -43 -65 -83 -33 -114 102 -213 203 -150 36
22 67 73 67 110 0 33 -25 83 -53 110 -36 33 -111 39 -152 13z"/>
<path d="M2617 1353 c-4 -3 -7 -15 -7 -25 0 -15 8 -18 60 -18 l60 0 0 -171 0
-170 23 3 c22 3 22 5 25 171 l2 167 55 0 c52 0 55 1 55 25 l0 25 -133 0 c-74
0 -137 -3 -140 -7z"/>
<path d="M3142 1352 c-9 -7 -12 -52 -10 -193 l3 -184 103 -3 c96 -3 102 -2
102 17 0 18 -8 20 -77 23 l-78 3 -3 68 -3 67 71 0 c63 0 70 2 70 20 0 17 -8
19 -67 22 l-68 3 -3 58 -3 57 81 0 c79 0 80 0 80 25 0 25 0 25 -92 25 -51 0
-99 -4 -106 -8z"/>
<path d="M3700 1353 c-71 -27 -110 -95 -110 -193 0 -126 54 -190 160 -190 76
0 144 43 114 72 -3 4 -26 -3 -51 -14 -57 -25 -103 -18 -136 22 -65 77 -36 236
47 259 37 10 100 -1 111 -19 11 -19 25 -10 25 16 0 19 -8 28 -35 40 -34 14
-96 18 -125 7z"/>
<path d="M4115 1348 c-3 -8 -4 -95 -3 -193 l3 -180 25 0 c25 0 25 2 28 88 l3
87 84 0 85 0 0 -90 c0 -89 0 -90 25 -90 l25 0 0 196 0 195 -22 -3 c-21 -3 -23
-9 -26 -85 l-3 -83 -84 0 -84 0 -3 83 c-3 76 -5 82 -26 85 -12 2 -24 -3 -27
-10z"/>
<path d="M4681 1346 c-8 -9 -11 -69 -9 -192 l3 -179 25 0 25 0 0 152 c0 84 3
149 7 145 4 -4 42 -72 85 -152 74 -137 80 -145 111 -148 l32 -3 0 196 0 196
-22 -3 c-23 -3 -23 -6 -26 -153 l-3 -150 -74 140 c-40 76 -82 145 -91 152 -23
17 -49 16 -63 -1z"/>
<path d="M5325 1346 c-68 -30 -95 -84 -95 -187 0 -79 15 -123 54 -159 23 -20
39 -25 99 -28 62 -3 77 -1 106 20 57 38 76 81 76 173 0 100 -21 147 -76 175
-44 23 -120 26 -164 6z m120 -40 c19 -8 41 -28 49 -45 21 -39 21 -152 1 -191
-44 -86 -179 -74 -204 17 -26 92 -5 179 51 213 39 24 57 25 103 6z"/>
<path d="M5834 1347 c-2 -7 -3 -94 -2 -192 l3 -180 98 -3 c98 -3 98 -3 95 20
-3 21 -9 23 -75 26 l-73 3 0 169 c0 164 -1 170 -20 170 -11 0 -23 -6 -26 -13z"/>
<path d="M6345 1346 c-68 -30 -95 -84 -95 -187 0 -79 15 -123 54 -159 23 -20
39 -25 99 -28 62 -3 77 -1 106 20 57 38 76 81 76 173 0 100 -21 147 -76 175
-44 23 -120 26 -164 6z m120 -40 c19 -8 41 -28 49 -45 21 -39 21 -152 1 -191
-44 -86 -179 -74 -204 17 -26 92 -5 179 51 213 39 24 57 25 103 6z"/>
<path d="M6935 1344 c-76 -39 -105 -91 -105 -185 0 -119 56 -181 169 -187 46
-3 79 1 104 12 l38 15 -3 88 -3 88 -72 3 c-67 3 -73 1 -73 -17 0 -17 8 -20 48
-23 l47 -3 3 -53 c3 -48 1 -53 -23 -62 -42 -16 -79 -12 -116 13 -110 73 -81
259 45 282 28 6 66 -3 129 -30 16 -7 18 -4 15 16 -7 51 -136 78 -203 43z"/>
<path d="M7378 1354 c-4 -3 20 -60 53 -125 55 -112 59 -123 59 -190 0 -67 1
-70 23 -67 20 3 22 9 27 83 5 72 11 91 58 182 28 57 52 107 52 113 0 5 -12 10
-26 10 -22 0 -31 -11 -68 -92 l-43 -92 -44 89 c-32 65 -50 91 -64 93 -12 2
-24 0 -27 -4z"/>
</g>
</svg>
