<svg version="1.1" id="Layer_1" xmlns="http://www.w3.org/2000/svg" xmlns:xlink="http://www.w3.org/1999/xlink" x="0px" y="0px"
	 width="100%" viewBox="0 0 890 368" enable-background="new 0 0 890 368" xml:space="preserve">
<path fill="#000000" opacity="1.000000" stroke="none" 
	d="
M612.000000,369.000000 
	C408.000000,369.000000 204.500000,369.000000 1.000000,369.000000 
	C1.000000,246.333328 1.000000,123.666664 1.000000,1.000000 
	C297.666656,1.000000 594.333313,1.000000 891.000000,1.000000 
	C891.000000,123.666664 891.000000,246.333328 891.000000,369.000000 
	C798.166687,369.000000 705.333313,369.000000 612.000000,369.000000 
M238.946793,165.720383 
	C229.522369,146.328201 215.636688,131.047531 195.683975,122.606865 
	C186.416000,118.686203 176.083817,115.815277 166.102310,115.360573 
	C146.906570,114.486115 127.548317,114.783287 108.386795,116.265938 
	C91.147774,117.599846 76.935982,135.194107 76.977989,152.034134 
	C77.056961,183.692459 77.049911,215.351212 76.982559,247.009583 
	C76.941330,266.386688 94.249382,283.750244 114.044113,283.927002 
	C144.700439,284.200745 175.361084,284.027863 206.019699,283.955322 
	C209.103073,283.948059 212.224747,283.537354 215.261047,282.959076 
	C232.693924,279.638885 245.897232,261.398163 245.177261,245.976730 
	C244.393280,229.184326 244.867188,212.325623 245.048630,195.498566 
	C245.158081,185.347565 242.968536,175.770248 238.946793,165.720383 
M582.001404,195.508163 
	C582.714600,198.242752 583.255920,201.039215 584.208801,203.687531 
	C584.737610,205.157089 585.657166,206.860123 586.909668,207.633026 
	C593.828064,211.902267 602.305420,208.587372 604.520386,200.887344 
	C612.149902,174.364487 619.776550,147.840729 627.327271,121.295395 
	C628.227539,118.130585 629.441956,114.495422 624.608032,113.199173 
	C619.566345,111.847198 615.324158,113.819389 614.205261,118.040375 
	C610.754883,131.057114 607.392029,144.097031 603.975830,157.122864 
	C601.034790,168.336761 598.067200,179.543686 595.111328,190.753693 
	C592.738464,185.760101 591.335327,180.840195 589.989136,175.904770 
	C584.826965,156.979462 579.611084,138.068253 574.582947,119.107338 
	C573.327515,114.373337 570.596985,112.696960 565.874817,112.941338 
	C561.532837,113.166046 558.948608,114.531334 557.854309,119.235680 
	C554.728394,132.674088 551.155334,146.009277 547.698975,159.369736 
	C545.061584,169.564148 542.333801,179.735214 539.646240,189.916656 
	C536.717102,183.269852 534.798218,176.641159 533.008362,169.977814 
	C528.394104,152.799179 523.750122,135.627609 519.306702,118.404564 
	C517.860474,112.798996 514.379211,112.205353 507.652954,113.287437 
	C502.249878,114.156654 504.870544,118.415230 505.657166,121.273636 
	C510.464966,138.744568 515.430725,156.172180 520.384644,173.602661 
	C523.248108,183.677902 526.163635,193.738541 529.102295,203.792145 
	C530.905884,209.962646 536.027710,209.030869 540.623962,208.951859 
	C544.504211,208.885178 547.473755,207.923691 548.541687,203.209732 
	C551.075500,192.026016 554.143982,180.962860 557.029114,169.859482 
	C559.744568,159.409363 562.501953,148.970139 565.240845,138.526123 
	C565.552734,138.538589 565.864624,138.551071 566.176514,138.563538 
	C571.379211,157.284027 576.581909,176.004501 582.001404,195.508163 
M280.000000,182.500000 
	C280.000000,166.173309 280.000000,149.846619 280.000000,133.519928 
	C287.650055,145.916122 294.284790,158.380569 300.930511,170.839111 
	C306.253632,180.818146 311.531036,190.822220 316.941895,200.753555 
	C320.421478,207.140091 325.651093,209.913940 332.014923,208.898209 
	C335.700378,208.309982 338.026825,206.487320 338.018341,202.285141 
	C337.961823,174.294785 338.002686,146.304214 337.948730,118.313843 
	C337.946320,117.071434 337.463440,114.815712 336.979492,114.752464 
	C333.748688,114.330193 330.364288,113.909737 327.236145,114.529785 
	C326.182739,114.738586 325.111267,117.971352 325.097168,119.829979 
	C324.944458,139.988663 325.000763,160.148926 325.000031,180.308762 
	C324.999939,182.033691 325.000000,183.758606 325.000000,186.746246 
	C323.768066,185.063263 323.332794,184.596802 323.042145,184.053024 
	C312.456726,164.251602 301.468323,144.649155 291.511505,124.536087 
	C287.400269,116.231354 282.180389,112.877457 273.163696,113.871666 
	C268.743134,114.359093 266.953430,115.916092 266.965759,120.320679 
	C267.043304,147.977753 267.066986,175.635422 266.941467,203.292130 
	C266.920837,207.838074 269.061554,209.149200 273.066742,208.999680 
	C277.028900,208.851791 280.327332,208.386612 280.070496,202.989914 
	C279.761993,196.506836 279.999146,189.997803 280.000000,182.500000 
M688.489746,189.973343 
	C689.908447,193.877243 691.291321,197.794601 692.753662,201.682068 
	C695.384094,208.674652 696.493774,209.403229 703.554016,208.985107 
	C708.157166,208.712479 709.252930,207.306244 707.829285,203.005432 
	C705.949890,197.327621 703.912170,191.700958 701.874146,186.077057 
	C693.722778,163.583786 685.380432,141.157623 677.485168,118.575035 
	C675.336487,112.429253 670.828125,113.175308 666.235962,112.990280 
	C661.808655,112.811882 659.242859,114.677307 657.770996,119.021835 
	C654.253418,129.404495 650.298645,139.638397 646.576172,149.952484 
	C640.315247,167.299820 634.032288,184.640030 627.963989,202.054810 
	C627.367371,203.767166 627.440125,206.712585 628.510864,207.818039 
	C631.678650,211.088455 639.787415,208.698822 641.344360,204.317505 
	C643.125610,199.305145 644.933167,194.287521 646.363831,189.169998 
	C647.421753,185.385818 649.280334,183.778351 653.413025,183.908936 
	C662.725647,184.203186 672.061829,184.224686 681.372437,183.899704 
	C685.570740,183.753174 687.542053,185.374466 688.489746,189.973343 
M398.152771,196.974136 
	C393.720367,197.120392 389.088074,198.167587 384.894623,197.237015 
	C374.093964,194.840302 368.103760,186.391327 368.032440,174.450958 
	C367.922058,155.970367 367.872742,137.487244 368.081665,119.008400 
	C368.137726,114.052078 365.489502,113.036247 361.575714,113.047585 
	C357.762054,113.058632 354.877930,113.798012 354.925110,118.856819 
	C355.114532,139.167770 354.646210,159.490326 355.145905,179.790756 
	C355.429291,191.302902 360.603180,200.607544 371.542267,205.756897 
	C379.880127,209.681778 388.489746,210.622925 397.729126,209.145187 
	C414.414093,206.476608 425.875977,194.002289 425.972748,177.049911 
	C426.082062,157.903305 425.853455,138.753738 426.098755,119.609665 
	C426.161835,114.684746 424.064758,113.056671 419.677155,113.020126 
	C414.449280,112.976578 413.013702,114.361977 413.007721,119.753639 
	C412.987946,137.568863 413.260651,155.389465 412.896301,173.197281 
	C412.687347,183.410965 410.068634,192.774078 398.152771,196.974136 
M481.498077,167.018097 
	C479.968781,163.991898 476.404388,161.556473 478.903412,157.389603 
	C480.574219,154.603683 481.992065,151.666290 483.657043,148.876617 
	C489.404663,139.246368 495.275726,129.689270 500.965424,120.025215 
	C503.494080,115.730240 501.954163,113.564026 497.069427,112.916695 
	C490.878143,112.096222 487.876556,115.381935 485.242981,120.249313 
	C479.995453,129.948029 474.406433,139.461975 468.627289,149.635284 
	C463.263214,140.214386 458.088013,131.588745 453.388000,122.711510 
	C450.124390,116.547356 446.758606,111.453033 438.472778,112.919945 
	C433.906738,113.728310 432.767456,115.375061 435.180389,119.445496 
	C442.724792,132.172256 450.348022,144.852661 457.800629,157.632721 
	C458.498627,158.829666 458.872711,160.979935 458.268219,162.049377 
	C453.951996,169.685104 449.307678,177.134460 444.837128,184.684219 
	C441.113556,190.972488 437.510223,197.331909 433.803284,203.630173 
	C431.791870,207.047607 433.533783,208.452026 436.656128,208.961945 
	C444.070709,210.172821 446.414734,208.742004 450.017120,202.150436 
	C455.751373,191.657990 461.742981,181.306168 467.800842,170.585007 
	C468.430145,171.345779 468.767883,171.649902 468.979553,172.025146 
	C475.292786,183.216721 481.581055,194.422379 487.903656,205.608658 
	C489.869904,209.087494 498.054749,210.789612 501.500977,207.995255 
	C505.141113,205.043625 501.918854,202.418915 500.374023,199.753769 
	C494.183472,189.073776 488.074036,178.346786 481.498077,167.018097 
M747.490906,140.014297 
	C744.930603,145.653534 742.370300,151.292770 739.564697,157.472305 
	C733.438416,144.398239 727.451233,132.165649 721.986572,119.703926 
	C719.638855,114.350235 715.916138,112.707504 710.593018,112.995728 
	C705.141418,113.290901 704.043152,114.968719 706.471863,119.902802 
	C710.885620,128.869370 714.790955,138.161179 720.005432,146.642838 
	C730.475098,163.672516 735.507690,181.722275 733.008118,201.688873 
	C732.946472,202.181015 733.046631,202.692398 732.995911,203.187073 
	C732.538330,207.646820 734.873718,209.172424 738.964844,208.997787 
	C742.860413,208.831543 746.243713,208.551453 746.072021,203.089859 
	C745.794617,194.265793 745.838318,185.421936 746.092590,176.596405 
	C746.175781,173.711929 746.851196,170.626724 748.089661,168.031235 
	C753.325256,157.058701 758.877625,146.237366 764.309143,135.358231 
	C766.913269,130.142410 769.552612,124.943443 772.087280,119.693962 
	C773.683655,116.387711 773.308167,113.831406 769.086548,113.091553 
	C763.226929,112.064629 760.256897,113.433121 757.723633,118.620377 
	C754.364563,125.498604 751.130188,132.437714 747.490906,140.014297 
M468.000549,239.721375 
	C468.001129,248.711761 467.953064,257.702606 468.037994,266.692200 
	C468.058167,268.828552 467.192169,271.792053 470.927612,271.865387 
	C474.664642,271.938751 473.947968,269.022461 473.969391,266.837952 
	C474.042206,259.418793 473.997192,251.998489 473.997192,243.201538 
	C475.244171,244.999268 475.733734,245.585007 476.093414,246.241852 
	C480.163483,253.674210 484.374603,261.036072 488.196960,268.594330 
	C489.943085,272.047089 492.718079,272.711304 495.591217,271.647583 
	C496.846008,271.182983 497.851379,268.361023 497.893036,266.584381 
	C498.115479,257.099792 498.030609,247.606949 497.972229,238.117447 
	C497.958679,235.914871 498.612000,233.019119 494.883423,233.135086 
	C491.150665,233.251205 492.219604,236.224609 492.024475,238.353943 
	C491.903412,239.674820 492.000153,241.015717 492.000092,242.347626 
	C491.999878,248.383789 492.000000,254.419937 492.000000,260.456085 
	C488.874939,256.700043 486.939392,252.706146 484.881073,248.776566 
	C482.722229,244.655060 480.328033,240.653717 478.257812,236.489899 
	C476.606232,233.168015 473.715027,232.164856 470.823944,233.368027 
	C469.381653,233.968231 468.912048,236.905670 468.000549,239.721375 
M655.993713,267.419891 
	C661.221985,260.373444 660.715942,252.270233 659.466187,244.408035 
	C658.360291,237.450287 653.391418,233.635345 646.381592,232.631668 
	C639.726685,231.678802 633.794250,233.126205 629.288086,238.322159 
	C623.050537,245.514618 623.559021,261.831604 630.042542,268.530273 
	C636.087891,274.776215 647.348022,274.527405 655.993713,267.419891 
M556.851807,262.001373 
	C557.234070,257.729309 557.903687,253.459763 557.940857,249.184708 
	C558.027405,239.234848 552.882812,233.095779 542.790894,232.346985 
	C534.892273,231.760925 526.387085,234.721680 524.073120,245.105591 
	C523.219910,248.934570 522.860840,253.032623 523.183411,256.932922 
	C523.949524,266.195648 528.583984,271.224213 536.960693,272.764374 
	C543.803528,274.022461 554.122131,271.021790 556.851807,262.001373 
M696.968201,265.932098 
	C689.084106,262.051178 688.653442,252.762863 690.655762,247.231689 
	C695.176819,234.743011 704.808167,237.355881 714.946106,240.297256 
	C714.314087,237.744446 713.555725,235.056656 711.940002,234.361404 
	C705.246094,231.481079 698.288818,231.413376 691.852234,235.180069 
	C684.252808,239.627258 681.243713,249.684006 684.003113,260.024567 
	C686.133911,268.009338 692.806335,272.817993 701.995056,272.990875 
	C712.307434,273.184906 714.999817,270.630554 715.000000,260.652802 
	C715.000183,249.313156 714.992310,249.215347 703.627747,250.130356 
	C702.090576,250.254105 700.679138,251.939438 699.209473,252.901688 
	C700.612000,253.928741 702.047424,255.864822 703.411072,255.815491 
	C707.825867,255.655792 709.209656,257.287994 709.107788,261.655396 
	C708.995544,266.468292 706.282043,267.160614 702.575562,266.967865 
	C700.938782,266.882751 699.317200,266.506165 696.968201,265.932098 
M418.063324,246.110214 
	C418.033600,242.946671 418.295685,239.739716 417.834839,236.640289 
	C417.642426,235.346207 415.912903,234.280685 414.882233,233.111237 
	C413.934021,234.192871 412.182587,235.259430 412.161957,236.358521 
	C411.958649,247.178574 411.960785,258.005676 412.177277,268.825317 
	C412.198090,269.865295 414.059631,270.868469 415.066620,271.888733 
	C416.031158,270.824219 417.687408,269.843536 417.828491,268.679230 
	C418.226562,265.394623 417.626526,261.979950 418.101410,258.715668 
	C419.105927,251.810333 424.650543,255.787964 428.080811,255.184433 
	C430.660889,254.730469 434.946533,253.391785 434.980255,258.803436 
	C434.999969,261.967316 434.720215,265.172028 435.158600,268.275940 
	C435.344116,269.589294 437.029114,270.690887 438.032593,271.888733 
	C439.015198,270.669067 440.763641,269.498718 440.846008,268.221039 
	C441.177277,263.079651 440.996704,257.905060 440.999084,252.742737 
	C441.001312,247.913422 441.023376,243.083847 440.981659,238.254883 
	C440.961487,235.917068 441.115509,232.948166 437.767578,233.379837 
	C436.666534,233.521820 435.445099,236.281921 435.116272,238.004669 
	C434.655823,240.416824 435.099274,242.987732 434.910400,245.472046 
	C434.830841,246.518890 434.402649,247.861115 433.648987,248.471817 
	C431.726379,250.029648 420.232086,248.766113 418.063324,246.110214 
M327.519714,267.000000 
	C319.981934,266.966125 320.315521,266.945068 319.894226,260.270508 
	C319.562469,255.013885 321.599030,253.320557 326.496002,253.967850 
	C327.967560,254.162384 329.562225,254.239929 330.965729,253.865662 
	C332.003265,253.588974 332.822266,252.492859 333.738617,251.761810 
	C332.897583,250.891464 332.155670,249.427353 331.196045,249.267075 
	C328.757996,248.859894 326.192810,249.243912 323.738312,248.892975 
	C322.488129,248.714218 320.705750,247.907471 320.296997,246.917007 
	C318.044189,241.458374 320.457184,238.033966 326.279480,238.001602 
	C328.112122,237.991409 329.993805,238.248917 331.761902,237.909302 
	C333.153442,237.642029 334.404938,236.645538 335.718658,235.972961 
	C334.457184,234.991776 333.252411,233.265244 331.924042,233.164276 
	C327.285614,232.811676 322.602264,233.105759 317.940277,232.986908 
	C314.795898,232.906723 313.963776,234.507629 313.983337,237.321869 
	C314.054016,247.484497 314.061493,257.648285 313.981842,267.810760 
	C313.958893,270.738586 315.034332,272.118561 318.073212,272.014343 
	C321.567719,271.894562 325.101227,272.282104 328.557922,271.903015 
	C331.024353,271.632568 335.525299,270.234924 335.471466,269.726501 
	C334.969177,264.983978 330.927673,267.833344 327.519714,267.000000 
M366.687592,259.383087 
	C366.507294,255.752731 365.780121,252.049576 366.251892,248.506027 
	C367.532501,238.886795 374.678131,235.572723 383.342010,240.208755 
	C384.324554,240.734528 385.344452,241.190536 387.991486,242.479904 
	C387.327026,239.275925 387.565399,236.735245 386.410858,235.539642 
	C382.723114,231.720810 367.700348,231.129440 363.367401,238.405289 
	C360.123779,243.851898 358.353668,249.650284 359.102753,256.010895 
	C360.763550,270.112427 371.861267,276.608398 384.497772,270.980713 
	C387.576324,269.609680 388.806854,267.655701 386.905762,264.023010 
	C379.291748,267.322845 371.740234,270.030945 366.687592,259.383087 
M760.150391,247.660477 
	C761.846436,244.239273 763.698364,240.882111 765.145508,237.358673 
	C765.592163,236.271210 764.935608,234.730667 764.784119,233.397568 
	C763.146484,233.771576 761.184021,233.716766 759.963318,234.641296 
	C758.764465,235.549332 758.287903,237.436737 757.549438,238.921753 
	C755.852783,242.333984 754.189636,245.762909 752.284912,249.650269 
	C743.731934,232.397064 743.731934,232.397064 737.697998,234.202347 
	C739.475403,237.815506 741.072876,241.372299 742.935364,244.784454 
	C746.784180,251.835831 750.269409,258.912994 749.063110,267.364716 
	C748.764832,269.454193 748.834534,272.366028 752.031006,271.677429 
	C753.282410,271.407867 754.963013,268.683868 754.835815,267.217621 
	C754.230164,260.236237 756.300598,254.133972 760.150391,247.660477 
M273.000000,257.493958 
	C273.002380,260.820190 272.990387,264.146545 273.012238,267.472656 
	C273.026764,269.685028 272.987915,272.399780 276.158813,271.698029 
	C277.349304,271.434570 278.816406,269.034668 278.865814,267.565338 
	C279.133911,259.591248 279.207977,251.595932 278.918091,243.623581 
	C278.758636,239.238220 280.244446,237.394882 284.620331,237.984421 
	C285.436371,238.094376 286.393829,238.242432 287.088531,237.931564 
	C288.404022,237.342850 289.576355,236.434189 290.808136,235.658447 
	C289.515411,234.776337 288.253143,233.189453 286.924805,233.132111 
	C280.616516,232.859802 274.278503,232.782913 267.976593,233.117798 
	C265.702637,233.238647 261.543182,234.822861 261.586548,235.536026 
	C261.843384,239.759415 265.585266,237.935654 267.780182,237.869125 
	C272.099091,237.738220 273.273254,239.579086 273.053131,243.526764 
	C272.812775,247.837479 272.999451,252.171982 273.000000,257.493958 
M589.984436,236.865784 
	C588.871521,235.614227 587.758667,234.362671 586.645813,233.111115 
	C585.773193,234.266739 584.164368,235.408875 584.142944,236.580093 
	C583.948181,247.203232 583.914001,257.834503 584.193359,268.453918 
	C584.224976,269.657837 586.383179,271.669525 587.717590,271.814575 
	C591.820435,272.260590 596.014648,272.163055 600.145569,271.876007 
	C601.413818,271.787842 602.592529,270.410095 603.812256,269.622925 
	C602.509460,268.752533 601.310242,267.521362 599.875793,267.109894 
	C598.340149,266.669434 596.571594,266.873718 594.924988,267.022095 
	C591.313782,267.347473 589.859192,265.921539 589.945496,262.190735 
	C590.133545,254.058884 589.998779,245.919540 589.984436,236.865784 
z"/>
<path fill="#FF8900" opacity="1.000000" stroke="none" 
	d="
M239.014297,166.106262 
	C242.968536,175.770248 245.158081,185.347565 245.048630,195.498566 
	C244.867188,212.325623 244.393280,229.184326 245.177261,245.976730 
	C245.897232,261.398163 232.693924,279.638885 215.261047,282.959076 
	C212.224747,283.537354 209.103073,283.948059 206.019699,283.955322 
	C175.361084,284.027863 144.700439,284.200745 114.044113,283.927002 
	C94.249382,283.750244 76.941330,266.386688 76.982559,247.009583 
	C77.049911,215.351212 77.056961,183.692459 76.977989,152.034134 
	C76.935982,135.194107 91.147774,117.599846 108.386795,116.265938 
	C127.548317,114.783287 146.906570,114.486115 166.102310,115.360573 
	C176.083817,115.815277 186.416000,118.686203 195.683975,122.606865 
	C215.636688,131.047531 229.522369,146.328201 239.014297,166.106262 
M241.960449,238.108765 
	C241.938400,236.393555 241.916351,234.678329 241.934708,232.091354 
	C241.912064,230.051819 241.889420,228.012283 241.925262,225.040558 
	C241.595505,211.570938 242.467346,197.941681 240.703247,184.662598 
	C236.027496,149.466400 201.019119,119.320435 165.603302,118.961700 
	C148.442825,118.787880 131.279160,118.936935 114.116936,118.923134 
	C107.389412,118.917725 101.351044,120.923042 95.404770,125.304611 
	C92.903152,127.840553 90.401535,130.376495 87.374619,133.326019 
	C85.606644,136.542282 83.838669,139.758545 81.749268,143.706131 
	C81.182419,149.791336 80.615570,155.876541 80.027466,162.896027 
	C79.758026,169.923325 79.234474,177.246887 83.469131,183.225357 
	C90.361641,192.956207 97.027504,203.121124 105.431908,211.443832 
	C118.240982,224.128326 133.451614,233.733948 150.290161,240.724747 
	C177.626633,252.073914 205.887878,256.127350 235.289276,253.150558 
	C240.726135,252.600082 242.615753,250.046066 241.980392,244.115494 
	C241.963181,242.397537 241.945969,240.679565 241.960449,238.108765 
z"/>
<path fill="#2E242D" opacity="1.000000" stroke="none" 
	d="
M581.893005,195.116577 
	C576.581909,176.004501 571.379211,157.284027 566.176514,138.563538 
	C565.864624,138.551071 565.552734,138.538589 565.240845,138.526123 
	C562.501953,148.970139 559.744568,159.409363 557.029114,169.859482 
	C554.143982,180.962860 551.075500,192.026016 548.541687,203.209732 
	C547.473755,207.923691 544.504211,208.885178 540.623962,208.951859 
	C536.027710,209.030869 530.905884,209.962646 529.102295,203.792145 
	C526.163635,193.738541 523.248108,183.677902 520.384644,173.602661 
	C515.430725,156.172180 510.464966,138.744568 505.657166,121.273636 
	C504.870544,118.415230 502.249878,114.156654 507.652954,113.287437 
	C514.379211,112.205353 517.860474,112.798996 519.306702,118.404564 
	C523.750122,135.627609 528.394104,152.799179 533.008362,169.977814 
	C534.798218,176.641159 536.717102,183.269852 539.646240,189.916656 
	C542.333801,179.735214 545.061584,169.564148 547.698975,159.369736 
	C551.155334,146.009277 554.728394,132.674088 557.854309,119.235680 
	C558.948608,114.531334 561.532837,113.166046 565.874817,112.941338 
	C570.596985,112.696960 573.327515,114.373337 574.582947,119.107338 
	C579.611084,138.068253 584.826965,156.979462 589.989136,175.904770 
	C591.335327,180.840195 592.738464,185.760101 595.111328,190.753693 
	C598.067200,179.543686 601.034790,168.336761 603.975830,157.122864 
	C607.392029,144.097031 610.754883,131.057114 614.205261,118.040375 
	C615.324158,113.819389 619.566345,111.847198 624.608032,113.199173 
	C629.441956,114.495422 628.227539,118.130585 627.327271,121.295395 
	C619.776550,147.840729 612.149902,174.364487 604.520386,200.887344 
	C602.305420,208.587372 593.828064,211.902267 586.909668,207.633026 
	C585.657166,206.860123 584.737610,205.157089 584.208801,203.687531 
	C583.255920,201.039215 582.714600,198.242752 581.893005,195.116577 
z"/>
<path fill="#2E242D" opacity="1.000000" stroke="none" 
	d="
M280.000000,183.000000 
	C279.999146,189.997803 279.761993,196.506836 280.070496,202.989914 
	C280.327332,208.386612 277.028900,208.851791 273.066742,208.999680 
	C269.061554,209.149200 266.920837,207.838074 266.941467,203.292130 
	C267.066986,175.635422 267.043304,147.977753 266.965759,120.320679 
	C266.953430,115.916092 268.743134,114.359093 273.163696,113.871666 
	C282.180389,112.877457 287.400269,116.231354 291.511505,124.536087 
	C301.468323,144.649155 312.456726,164.251602 323.042145,184.053024 
	C323.332794,184.596802 323.768066,185.063263 325.000000,186.746246 
	C325.000000,183.758606 324.999939,182.033691 325.000031,180.308762 
	C325.000763,160.148926 324.944458,139.988663 325.097168,119.829979 
	C325.111267,117.971352 326.182739,114.738586 327.236145,114.529785 
	C330.364288,113.909737 333.748688,114.330193 336.979492,114.752464 
	C337.463440,114.815712 337.946320,117.071434 337.948730,118.313843 
	C338.002686,146.304214 337.961823,174.294785 338.018341,202.285141 
	C338.026825,206.487320 335.700378,208.309982 332.014923,208.898209 
	C325.651093,209.913940 320.421478,207.140091 316.941895,200.753555 
	C311.531036,190.822220 306.253632,180.818146 300.930511,170.839111 
	C294.284790,158.380569 287.650055,145.916122 280.000000,133.519928 
	C280.000000,149.846619 280.000000,166.173309 280.000000,183.000000 
z"/>
<path fill="#2E242D" opacity="1.000000" stroke="none" 
	d="
M688.347168,189.599243 
	C687.542053,185.374466 685.570740,183.753174 681.372437,183.899704 
	C672.061829,184.224686 662.725647,184.203186 653.413025,183.908936 
	C649.280334,183.778351 647.421753,185.385818 646.363831,189.169998 
	C644.933167,194.287521 643.125610,199.305145 641.344360,204.317505 
	C639.787415,208.698822 631.678650,211.088455 628.510864,207.818039 
	C627.440125,206.712585 627.367371,203.767166 627.963989,202.054810 
	C634.032288,184.640030 640.315247,167.299820 646.576172,149.952484 
	C650.298645,139.638397 654.253418,129.404495 657.770996,119.021835 
	C659.242859,114.677307 661.808655,112.811882 666.235962,112.990280 
	C670.828125,113.175308 675.336487,112.429253 677.485168,118.575035 
	C685.380432,141.157623 693.722778,163.583786 701.874146,186.077057 
	C703.912170,191.700958 705.949890,197.327621 707.829285,203.005432 
	C709.252930,207.306244 708.157166,208.712479 703.554016,208.985107 
	C696.493774,209.403229 695.384094,208.674652 692.753662,201.682068 
	C691.291321,197.794601 689.908447,193.877243 688.347168,189.599243 
M655.999146,160.506546 
	C654.744263,164.381592 653.489380,168.256622 652.087891,172.584381 
	C662.592651,172.584381 672.247192,172.584381 682.582458,172.584381 
	C677.500916,158.152191 672.627136,144.310257 667.753418,130.468307 
	C667.316162,130.560196 666.878967,130.652084 666.441711,130.743973 
	C663.031738,140.411819 659.621826,150.079681 655.999146,160.506546 
z"/>
<path fill="#2E242D" opacity="1.000000" stroke="none" 
	d="
M398.549377,196.894363 
	C410.068634,192.774078 412.687347,183.410965 412.896301,173.197281 
	C413.260651,155.389465 412.987946,137.568863 413.007721,119.753639 
	C413.013702,114.361977 414.449280,112.976578 419.677155,113.020126 
	C424.064758,113.056671 426.161835,114.684746 426.098755,119.609665 
	C425.853455,138.753738 426.082062,157.903305 425.972748,177.049911 
	C425.875977,194.002289 414.414093,206.476608 397.729126,209.145187 
	C388.489746,210.622925 379.880127,209.681778 371.542267,205.756897 
	C360.603180,200.607544 355.429291,191.302902 355.145905,179.790756 
	C354.646210,159.490326 355.114532,139.167770 354.925110,118.856819 
	C354.877930,113.798012 357.762054,113.058632 361.575714,113.047585 
	C365.489502,113.036247 368.137726,114.052078 368.081665,119.008400 
	C367.872742,137.487244 367.922058,155.970367 368.032440,174.450958 
	C368.103760,186.391327 374.093964,194.840302 384.894623,197.237015 
	C389.088074,198.167587 393.720367,197.120392 398.549377,196.894363 
z"/>
<path fill="#FF8800" opacity="1.000000" stroke="none" 
	d="
M481.716309,167.327637 
	C488.074036,178.346786 494.183472,189.073776 500.374023,199.753769 
	C501.918854,202.418915 505.141113,205.043625 501.500977,207.995255 
	C498.054749,210.789612 489.869904,209.087494 487.903656,205.608658 
	C481.581055,194.422379 475.292786,183.216721 468.979553,172.025146 
	C468.767883,171.649902 468.430145,171.345779 467.800842,170.585007 
	C461.742981,181.306168 455.751373,191.657990 450.017120,202.150436 
	C446.414734,208.742004 444.070709,210.172821 436.656128,208.961945 
	C433.533783,208.452026 431.791870,207.047607 433.803284,203.630173 
	C437.510223,197.331909 441.113556,190.972488 444.837128,184.684219 
	C449.307678,177.134460 453.951996,169.685104 458.268219,162.049377 
	C458.872711,160.979935 458.498627,158.829666 457.800629,157.632721 
	C450.348022,144.852661 442.724792,132.172256 435.180389,119.445496 
	C432.767456,115.375061 433.906738,113.728310 438.472778,112.919945 
	C446.758606,111.453033 450.124390,116.547356 453.388000,122.711510 
	C458.088013,131.588745 463.263214,140.214386 468.627289,149.635284 
	C474.406433,139.461975 479.995453,129.948029 485.242981,120.249313 
	C487.876556,115.381935 490.878143,112.096222 497.069427,112.916695 
	C501.954163,113.564026 503.494080,115.730240 500.965424,120.025215 
	C495.275726,129.689270 489.404663,139.246368 483.657043,148.876617 
	C481.992065,151.666290 480.574219,154.603683 478.903412,157.389603 
	C476.404388,161.556473 479.968781,163.991898 481.716309,167.327637 
z"/>
<path fill="#2E242D" opacity="1.000000" stroke="none" 
	d="
M747.666626,139.682465 
	C751.130188,132.437714 754.364563,125.498604 757.723633,118.620377 
	C760.256897,113.433121 763.226929,112.064629 769.086548,113.091553 
	C773.308167,113.831406 773.683655,116.387711 772.087280,119.693962 
	C769.552612,124.943443 766.913269,130.142410 764.309143,135.358231 
	C758.877625,146.237366 753.325256,157.058701 748.089661,168.031235 
	C746.851196,170.626724 746.175781,173.711929 746.092590,176.596405 
	C745.838318,185.421936 745.794617,194.265793 746.072021,203.089859 
	C746.243713,208.551453 742.860413,208.831543 738.964844,208.997787 
	C734.873718,209.172424 732.538330,207.646820 732.995911,203.187073 
	C733.046631,202.692398 732.946472,202.181015 733.008118,201.688873 
	C735.507690,181.722275 730.475098,163.672516 720.005432,146.642838 
	C714.790955,138.161179 710.885620,128.869370 706.471863,119.902802 
	C704.043152,114.968719 705.141418,113.290901 710.593018,112.995728 
	C715.916138,112.707504 719.638855,114.350235 721.986572,119.703926 
	C727.451233,132.165649 733.438416,144.398239 739.564697,157.472305 
	C742.370300,151.292770 744.930603,145.653534 747.666626,139.682465 
z"/>
<path fill="#2E242D" opacity="1.000000" stroke="none" 
	d="
M468.001495,239.253632 
	C468.912048,236.905670 469.381653,233.968231 470.823944,233.368027 
	C473.715027,232.164856 476.606232,233.168015 478.257812,236.489899 
	C480.328033,240.653717 482.722229,244.655060 484.881073,248.776566 
	C486.939392,252.706146 488.874939,256.700043 492.000000,260.456085 
	C492.000000,254.419937 491.999878,248.383789 492.000092,242.347626 
	C492.000153,241.015717 491.903412,239.674820 492.024475,238.353943 
	C492.219604,236.224609 491.150665,233.251205 494.883423,233.135086 
	C498.612000,233.019119 497.958679,235.914871 497.972229,238.117447 
	C498.030609,247.606949 498.115479,257.099792 497.893036,266.584381 
	C497.851379,268.361023 496.846008,271.182983 495.591217,271.647583 
	C492.718079,272.711304 489.943085,272.047089 488.196960,268.594330 
	C484.374603,261.036072 480.163483,253.674210 476.093414,246.241852 
	C475.733734,245.585007 475.244171,244.999268 473.997192,243.201538 
	C473.997192,251.998489 474.042206,259.418793 473.969391,266.837952 
	C473.947968,269.022461 474.664642,271.938751 470.927612,271.865387 
	C467.192169,271.792053 468.058167,268.828552 468.037994,266.692200 
	C467.953064,257.702606 468.001129,248.711761 468.001495,239.253632 
z"/>
<path fill="#2E242D" opacity="1.000000" stroke="none" 
	d="
M655.743896,267.693909 
	C647.348022,274.527405 636.087891,274.776215 630.042542,268.530273 
	C623.559021,261.831604 623.050537,245.514618 629.288086,238.322159 
	C633.794250,233.126205 639.726685,231.678802 646.381592,232.631668 
	C653.391418,233.635345 658.360291,237.450287 659.466187,244.408035 
	C660.715942,252.270233 661.221985,260.373444 655.743896,267.693909 
M632.090820,247.760513 
	C632.078369,251.066940 631.706726,254.421371 632.140564,257.668152 
	C632.741455,262.164124 634.704773,265.987976 639.809692,266.883240 
	C645.761658,267.927002 650.814392,265.970245 652.174988,261.119965 
	C653.345093,256.948517 653.860046,252.284271 653.312561,248.011230 
	C652.453308,241.305145 649.173279,238.386688 644.133423,238.026917 
	C638.085876,237.595200 634.542114,240.256104 632.090820,247.760513 
z"/>
<path fill="#2E242D" opacity="1.000000" stroke="none" 
	d="
M556.712036,262.373779 
	C554.122131,271.021790 543.803528,274.022461 536.960693,272.764374 
	C528.583984,271.224213 523.949524,266.195648 523.183411,256.932922 
	C522.860840,253.032623 523.219910,248.934570 524.073120,245.105591 
	C526.387085,234.721680 534.892273,231.760925 542.790894,232.346985 
	C552.882812,233.095779 558.027405,239.234848 557.940857,249.184708 
	C557.903687,253.459763 557.234070,257.729309 556.712036,262.373779 
M550.816101,259.945465 
	C550.862305,255.212418 551.433899,250.408539 550.808228,245.766052 
	C550.170776,241.036697 546.825317,238.272964 541.817871,238.020889 
	C536.590637,237.757736 532.277527,240.144791 531.028564,244.945877 
	C530.092224,248.545059 529.975464,252.448898 530.067505,256.203033 
	C530.211060,262.057861 533.082520,265.912811 537.331787,266.832184 
	C543.445557,268.154968 547.261169,266.387939 550.816101,259.945465 
z"/>
<path fill="#2E242D" opacity="1.000000" stroke="none" 
	d="
M697.328491,266.096985 
	C699.317200,266.506165 700.938782,266.882751 702.575562,266.967865 
	C706.282043,267.160614 708.995544,266.468292 709.107788,261.655396 
	C709.209656,257.287994 707.825867,255.655792 703.411072,255.815491 
	C702.047424,255.864822 700.612000,253.928741 699.209473,252.901688 
	C700.679138,251.939438 702.090576,250.254105 703.627747,250.130356 
	C714.992310,249.215347 715.000183,249.313156 715.000000,260.652802 
	C714.999817,270.630554 712.307434,273.184906 701.995056,272.990875 
	C692.806335,272.817993 686.133911,268.009338 684.003113,260.024567 
	C681.243713,249.684006 684.252808,239.627258 691.852234,235.180069 
	C698.288818,231.413376 705.246094,231.481079 711.940002,234.361404 
	C713.555725,235.056656 714.314087,237.744446 714.946106,240.297256 
	C704.808167,237.355881 695.176819,234.743011 690.655762,247.231689 
	C688.653442,252.762863 689.084106,262.051178 697.328491,266.096985 
z"/>
<path fill="#2E242D" opacity="1.000000" stroke="none" 
	d="
M418.128235,246.555527 
	C420.232086,248.766113 431.726379,250.029648 433.648987,248.471817 
	C434.402649,247.861115 434.830841,246.518890 434.910400,245.472046 
	C435.099274,242.987732 434.655823,240.416824 435.116272,238.004669 
	C435.445099,236.281921 436.666534,233.521820 437.767578,233.379837 
	C441.115509,232.948166 440.961487,235.917068 440.981659,238.254883 
	C441.023376,243.083847 441.001312,247.913422 440.999084,252.742737 
	C440.996704,257.905060 441.177277,263.079651 440.846008,268.221039 
	C440.763641,269.498718 439.015198,270.669067 438.032593,271.888733 
	C437.029114,270.690887 435.344116,269.589294 435.158600,268.275940 
	C434.720215,265.172028 434.999969,261.967316 434.980255,258.803436 
	C434.946533,253.391785 430.660889,254.730469 428.080811,255.184433 
	C424.650543,255.787964 419.105927,251.810333 418.101410,258.715668 
	C417.626526,261.979950 418.226562,265.394623 417.828491,268.679230 
	C417.687408,269.843536 416.031158,270.824219 415.066620,271.888733 
	C414.059631,270.868469 412.198090,269.865295 412.177277,268.825317 
	C411.960785,258.005676 411.958649,247.178574 412.161957,236.358521 
	C412.182587,235.259430 413.934021,234.192871 414.882263,233.111237 
	C415.912903,234.280685 417.642426,235.346207 417.834839,236.640289 
	C418.295685,239.739716 418.033600,242.946671 418.128235,246.555527 
z"/>
<path fill="#2E242D" opacity="1.000000" stroke="none" 
	d="
M327.987183,267.000000 
	C330.927673,267.833344 334.969177,264.983978 335.471466,269.726501 
	C335.525299,270.234924 331.024353,271.632568 328.557922,271.903015 
	C325.101227,272.282104 321.567719,271.894562 318.073212,272.014343 
	C315.034332,272.118561 313.958893,270.738586 313.981842,267.810760 
	C314.061493,257.648285 314.054016,247.484497 313.983337,237.321869 
	C313.963776,234.507629 314.795898,232.906723 317.940277,232.986908 
	C322.602264,233.105759 327.285614,232.811676 331.924042,233.164276 
	C333.252411,233.265244 334.457184,234.991776 335.718658,235.972946 
	C334.404938,236.645538 333.153442,237.642029 331.761902,237.909302 
	C329.993805,238.248917 328.112122,237.991409 326.279480,238.001602 
	C320.457184,238.033966 318.044189,241.458374 320.296997,246.917007 
	C320.705750,247.907471 322.488129,248.714218 323.738312,248.892975 
	C326.192810,249.243912 328.757996,248.859894 331.196045,249.267075 
	C332.155670,249.427353 332.897583,250.891464 333.738617,251.761810 
	C332.822266,252.492859 332.003265,253.588974 330.965729,253.865662 
	C329.562225,254.239929 327.967560,254.162384 326.496002,253.967850 
	C321.599030,253.320557 319.562469,255.013885 319.894226,260.270508 
	C320.315521,266.945068 319.981934,266.966125 327.987183,267.000000 
z"/>
<path fill="#2E242D" opacity="1.000000" stroke="none" 
	d="
M366.806885,259.770020 
	C371.740234,270.030945 379.291748,267.322845 386.905762,264.023010 
	C388.806854,267.655701 387.576324,269.609680 384.497772,270.980713 
	C371.861267,276.608398 360.763550,270.112427 359.102753,256.010895 
	C358.353668,249.650284 360.123779,243.851898 363.367401,238.405289 
	C367.700348,231.129440 382.723114,231.720810 386.410858,235.539642 
	C387.565399,236.735245 387.327026,239.275925 387.991486,242.479904 
	C385.344452,241.190536 384.324554,240.734528 383.342010,240.208755 
	C374.678131,235.572723 367.532501,238.886795 366.251892,248.506027 
	C365.780121,252.049576 366.507294,255.752731 366.806885,259.770020 
z"/>
<path fill="#2E242D" opacity="1.000000" stroke="none" 
	d="
M759.998535,248.001892 
	C756.300598,254.133972 754.230164,260.236237 754.835815,267.217621 
	C754.963013,268.683868 753.282410,271.407867 752.031006,271.677429 
	C748.834534,272.366028 748.764832,269.454193 749.063110,267.364716 
	C750.269409,258.912994 746.784180,251.835831 742.935364,244.784454 
	C741.072876,241.372299 739.475403,237.815506 737.697998,234.202347 
	C743.731934,232.397064 743.731934,232.397064 752.284912,249.650269 
	C754.189636,245.762909 755.852783,242.333984 757.549438,238.921753 
	C758.287903,237.436737 758.764465,235.549332 759.963318,234.641296 
	C761.184021,233.716766 763.146484,233.771576 764.784119,233.397568 
	C764.935608,234.730667 765.592163,236.271210 765.145508,237.358673 
	C763.698364,240.882111 761.846436,244.239273 759.998535,248.001892 
z"/>
<path fill="#2E242D" opacity="1.000000" stroke="none" 
	d="
M273.000000,256.995056 
	C272.999451,252.171982 272.812775,247.837479 273.053131,243.526764 
	C273.273254,239.579086 272.099091,237.738220 267.780182,237.869125 
	C265.585266,237.935654 261.843384,239.759415 261.586548,235.536026 
	C261.543182,234.822861 265.702637,233.238647 267.976593,233.117798 
	C274.278503,232.782913 280.616516,232.859802 286.924805,233.132111 
	C288.253143,233.189453 289.515411,234.776337 290.808136,235.658447 
	C289.576355,236.434189 288.404022,237.342850 287.088531,237.931564 
	C286.393829,238.242432 285.436371,238.094376 284.620331,237.984421 
	C280.244446,237.394882 278.758636,239.238220 278.918091,243.623581 
	C279.207977,251.595932 279.133911,259.591248 278.865814,267.565338 
	C278.816406,269.034668 277.349304,271.434570 276.158813,271.698029 
	C272.987915,272.399780 273.026764,269.685028 273.012238,267.472656 
	C272.990387,264.146545 273.002380,260.820190 273.000000,256.995056 
z"/>
<path fill="#2E242D" opacity="1.000000" stroke="none" 
	d="
M589.990173,237.324524 
	C589.998779,245.919540 590.133545,254.058884 589.945496,262.190735 
	C589.859192,265.921539 591.313782,267.347473 594.924988,267.022095 
	C596.571594,266.873718 598.340149,266.669434 599.875793,267.109894 
	C601.310242,267.521362 602.509460,268.752533 603.812256,269.622925 
	C602.592529,270.410095 601.413818,271.787842 600.145569,271.876007 
	C596.014648,272.163055 591.820435,272.260590 587.717590,271.814575 
	C586.383179,271.669525 584.224976,269.657837 584.193359,268.453918 
	C583.914001,257.834503 583.948181,247.203232 584.142944,236.580093 
	C584.164368,235.408875 585.773193,234.266739 586.645813,233.111115 
	C587.758667,234.362671 588.871521,235.614227 589.990173,237.324524 
z"/>
<path fill="#FBD513" opacity="1.000000" stroke="none" 
	d="
M95.999527,124.998749 
	C101.351044,120.923042 107.389412,118.917725 114.116936,118.923134 
	C131.279160,118.936935 148.442825,118.787880 165.603302,118.961700 
	C201.019119,119.320435 236.027496,149.466400 240.703247,184.662598 
	C242.467346,197.941681 241.595505,211.570938 241.460358,225.513901 
	C230.093536,226.325287 219.174561,227.209778 208.293777,226.870163 
	C192.921387,226.390396 177.964767,223.163254 163.715378,217.214539 
	C161.903015,216.457916 160.561462,214.573517 159.425690,213.174957 
	C166.073395,213.374435 170.947342,211.044724 173.545517,205.234070 
	C175.920380,199.922836 175.120880,194.815750 171.224335,190.425781 
	C166.002136,184.542313 156.650116,184.385162 151.299332,190.150085 
	C145.778885,196.097809 144.566528,203.527969 152.644958,210.982147 
	C150.367020,210.407104 148.261749,210.203995 146.625031,209.220840 
	C114.843773,190.130234 94.940125,163.850876 95.999527,124.998749 
M179.080322,134.273529 
	C168.771393,131.885193 158.427612,131.232071 148.025696,133.392929 
	C147.930847,140.289124 150.310883,143.652008 156.477600,145.140778 
	C158.715210,145.681000 161.070023,145.874146 163.380539,145.951675 
	C178.322357,146.452942 190.648254,152.469635 200.764923,163.350372 
	C210.554733,173.879578 214.718842,186.476028 215.035721,200.652237 
	C215.221481,208.962646 220.063110,213.399216 227.325027,212.410339 
	C234.600662,178.655838 213.726486,144.414764 179.080322,134.273529 
M201.631149,202.138611 
	C202.391296,186.315125 195.972595,173.982162 182.906219,165.363464 
	C171.999084,158.169037 160.113373,157.295181 147.786545,161.256699 
	C148.616699,168.872467 152.195847,172.124435 160.036545,172.818527 
	C178.262314,174.431992 186.470291,182.617569 188.015686,200.721390 
	C188.632492,207.947144 192.687027,212.202957 199.882278,212.675354 
	C200.421082,209.492874 200.969864,206.251572 201.631149,202.138611 
z"/>
<path fill="#FF9703" opacity="1.000000" stroke="none" 
	d="
M241.971512,244.972076 
	C242.615753,250.046066 240.726135,252.600082 235.289276,253.150558 
	C205.887878,256.127350 177.626633,252.073914 150.290161,240.724747 
	C133.451614,233.733948 118.240982,224.128326 105.431908,211.443832 
	C97.027504,203.121124 90.361641,192.956207 83.469131,183.225357 
	C79.234474,177.246887 79.758026,169.923325 80.369102,162.532806 
	C81.662064,163.452942 82.918274,164.608459 83.518257,166.039154 
	C90.718117,183.207520 101.197922,197.924301 115.447906,210.004929 
	C142.513321,232.950012 173.954086,244.527237 209.171951,245.881729 
	C220.077347,246.301132 231.036804,245.314789 241.971512,244.972076 
z"/>
<path fill="#FDCA10" opacity="1.000000" stroke="none" 
	d="
M95.702148,125.151680 
	C94.940125,163.850876 114.843773,190.130234 146.625031,209.220840 
	C148.261749,210.203995 150.367020,210.407104 152.988373,211.056641 
	C155.482330,211.830460 157.242065,212.521027 159.001785,213.211594 
	C160.561462,214.573517 161.903015,216.457916 163.715378,217.214539 
	C177.964767,223.163254 192.921387,226.390396 208.293777,226.870163 
	C219.174561,227.209778 230.093536,226.325287 241.431122,225.979996 
	C241.889420,228.012283 241.912064,230.051819 241.487396,232.538269 
	C231.287247,233.327148 221.535538,233.918411 211.781372,233.962875 
	C185.669357,234.081879 161.570023,226.752060 139.447861,213.136536 
	C114.688072,197.897644 97.041313,177.090179 90.556862,148.049850 
	C89.441628,143.055313 88.774200,137.960785 87.899910,132.912445 
	C90.401535,130.376495 92.903152,127.840553 95.702148,125.151680 
z"/>
<path fill="#FEA908" opacity="1.000000" stroke="none" 
	d="
M241.975952,244.543793 
	C231.036804,245.314789 220.077347,246.301132 209.171951,245.881729 
	C173.954086,244.527237 142.513321,232.950012 115.447906,210.004929 
	C101.197922,197.924301 90.718117,183.207520 83.518257,166.039154 
	C82.918274,164.608459 81.662064,163.452942 80.379730,162.065659 
	C80.615570,155.876541 81.182419,149.791336 82.222610,143.508057 
	C83.691490,146.426483 84.863899,149.498932 85.652695,152.666901 
	C89.555565,168.341568 97.007561,182.270020 107.779121,194.086517 
	C135.146225,224.108444 169.913086,238.322296 210.058136,239.886200 
	C220.653580,240.298965 231.303726,239.307999 241.928757,238.961609 
	C241.945969,240.679565 241.963181,242.397537 241.975952,244.543793 
z"/>
<path fill="#FEBA0C" opacity="1.000000" stroke="none" 
	d="
M241.944611,238.535187 
	C231.303726,239.307999 220.653580,240.298965 210.058136,239.886200 
	C169.913086,238.322296 135.146225,224.108444 107.779121,194.086517 
	C97.007561,182.270020 89.555565,168.341568 85.652695,152.666901 
	C84.863899,149.498932 83.691490,146.426483 82.383316,143.142395 
	C83.838669,139.758545 85.606644,136.542282 87.637268,133.119232 
	C88.774200,137.960785 89.441628,143.055313 90.556862,148.049850 
	C97.041313,177.090179 114.688072,197.897644 139.447861,213.136536 
	C161.570023,226.752060 185.669357,234.081879 211.781372,233.962875 
	C221.535538,233.918411 231.287247,233.327148 241.467194,232.974152 
	C241.916351,234.678329 241.938400,236.393555 241.944611,238.535187 
z"/>
<path fill="#000000" opacity="1.000000" stroke="none" 
	d="
M656.105469,160.127045 
	C659.621826,150.079681 663.031738,140.411819 666.441711,130.743973 
	C666.878967,130.652084 667.316162,130.560196 667.753418,130.468307 
	C672.627136,144.310257 677.500916,158.152191 682.582458,172.584381 
	C672.247192,172.584381 662.592651,172.584381 652.087891,172.584381 
	C653.489380,168.256622 654.744263,164.381592 656.105469,160.127045 
z"/>
<path fill="#000000" opacity="1.000000" stroke="none" 
	d="
M632.152588,247.368500 
	C634.542114,240.256104 638.085876,237.595200 644.133423,238.026917 
	C649.173279,238.386688 652.453308,241.305145 653.312561,248.011230 
	C653.860046,252.284271 653.345093,256.948517 652.174988,261.119965 
	C650.814392,265.970245 645.761658,267.927002 639.809692,266.883240 
	C634.704773,265.987976 632.741455,262.164124 632.140564,257.668152 
	C631.706726,254.421371 632.078369,251.066940 632.152588,247.368500 
z"/>
<path fill="#000000" opacity="1.000000" stroke="none" 
	d="
M550.691772,260.324097 
	C547.261169,266.387939 543.445557,268.154968 537.331787,266.832184 
	C533.082520,265.912811 530.211060,262.057861 530.067505,256.203033 
	C529.975464,252.448898 530.092224,248.545059 531.028564,244.945877 
	C532.277527,240.144791 536.590637,237.757736 541.817871,238.020889 
	C546.825317,238.272964 550.170776,241.036697 550.808228,245.766052 
	C551.433899,250.408539 550.862305,255.212418 550.691772,260.324097 
z"/>
<path fill="#31272D" opacity="1.000000" stroke="none" 
	d="
M179.466629,134.406372 
	C213.726486,144.414764 234.600662,178.655838 227.325027,212.410339 
	C220.063110,213.399216 215.221481,208.962646 215.035721,200.652237 
	C214.718842,186.476028 210.554733,173.879578 200.764923,163.350372 
	C190.648254,152.469635 178.322357,146.452942 163.380539,145.951675 
	C161.070023,145.874146 158.715210,145.681000 156.477600,145.140778 
	C150.310883,143.652008 147.930847,140.289124 148.025696,133.392929 
	C158.427612,131.232071 168.771393,131.885193 179.466629,134.406372 
z"/>
<path fill="#31272D" opacity="1.000000" stroke="none" 
	d="
M201.574890,202.574432 
	C200.969864,206.251572 200.421082,209.492874 199.882278,212.675354 
	C192.687027,212.202957 188.632492,207.947144 188.015686,200.721390 
	C186.470291,182.617569 178.262314,174.431992 160.036545,172.818527 
	C152.195847,172.124435 148.616699,168.872467 147.786545,161.256699 
	C160.113373,157.295181 171.999084,158.169037 182.906219,165.363464 
	C195.972595,173.982162 202.391296,186.315125 201.574890,202.574432 
z"/>
<path fill="#31272D" opacity="1.000000" stroke="none" 
	d="
M159.425690,213.174957 
	C157.242065,212.521027 155.482330,211.830460 153.379181,211.065399 
	C144.566528,203.527969 145.778885,196.097809 151.299332,190.150085 
	C156.650116,184.385162 166.002136,184.542313 171.224335,190.425781 
	C175.120880,194.815750 175.920380,199.922836 173.545517,205.234070 
	C170.947342,211.044724 166.073395,213.374435 159.425690,213.174957 
z"/>
</svg>