<svg version="1.1" id="Layer_1" xmlns="http://www.w3.org/2000/svg" xmlns:xlink="http://www.w3.org/1999/xlink" x="0px" y="0px"
	 width="100%" viewBox="0 0 890 368" enable-background="new 0 0 890 368" xml:space="preserve">
<path fill="#000000" opacity="1.000000" stroke="none" 
	d="
M609.000000,369.000000 
	C406.000000,369.000000 203.500000,369.000000 1.000000,369.000000 
	C1.000000,246.333328 1.000000,123.666664 1.000000,1.000000 
	C297.666656,1.000000 594.333313,1.000000 891.000000,1.000000 
	C891.000000,123.666664 891.000000,246.333328 891.000000,369.000000 
	C797.166687,369.000000 703.333313,369.000000 609.000000,369.000000 
M101.001572,161.500916 
	C101.001579,188.315903 101.528389,215.144562 100.832436,241.941467 
	C100.290085,262.824402 118.772476,281.288635 139.966019,281.075073 
	C169.942490,280.773010 199.924362,281.029816 229.903687,280.953461 
	C233.153519,280.945190 236.477951,280.644897 239.638107,279.917084 
	C257.063934,275.903717 268.275146,261.218628 268.692627,248.602081 
	C269.438599,226.060883 269.635406,203.343506 267.652222,180.912827 
	C265.512146,156.707382 250.529007,139.326797 231.245804,125.798561 
	C215.527191,114.771080 197.463272,111.615356 178.612183,112.004700 
	C163.199432,112.323021 147.684082,111.687737 132.405579,113.294708 
	C118.729919,114.733093 109.527168,123.450043 103.760315,136.229538 
	C100.133339,144.267014 101.460747,152.373459 101.001572,161.500916 
M616.678345,206.000000 
	C625.878174,205.999054 626.827026,205.101730 629.031616,196.700302 
	C631.758667,186.308411 634.754944,175.985580 637.743225,165.664261 
	C642.424255,149.495789 647.307861,133.384628 651.810425,117.167206 
	C652.495911,114.698189 653.348572,111.085594 649.062927,110.027412 
	C644.501465,108.901115 639.432251,110.699226 638.547546,113.959206 
	C635.309692,125.890648 632.144348,137.842056 629.009277,149.801041 
	C625.607849,162.776154 622.270813,175.768112 618.658508,189.706482 
	C615.574829,178.600418 612.760803,168.571732 610.008118,158.526230 
	C605.980408,143.828079 601.927795,129.136108 598.031616,114.402946 
	C596.676025,109.276726 592.774597,110.047096 589.100098,109.998055 
	C585.631042,109.951759 582.917908,110.978714 582.030701,114.775452 
	C581.043396,119.000267 580.059998,123.227051 578.989014,127.431114 
	C573.875732,147.504379 568.733215,167.570236 563.566650,187.773346 
	C563.002563,187.362549 562.560120,187.215256 562.491577,186.965393 
	C559.307495,175.361023 556.140930,163.751801 553.004822,152.134354 
	C549.659973,139.743271 546.417175,127.324104 542.986511,114.956963 
	C541.635803,110.087822 533.237793,107.693588 529.572571,111.078560 
	C528.893005,111.706207 528.506653,113.258469 528.749390,114.183357 
	C531.071716,123.032013 533.524780,131.846985 536.004944,140.653442 
	C541.655396,160.716690 547.242432,180.799286 553.165100,200.782181 
	C553.773621,202.835312 556.281433,205.398239 558.250366,205.737427 
	C561.657654,206.324417 565.388672,205.619476 568.866394,204.893600 
	C570.089172,204.638367 571.558105,202.887848 571.914062,201.553223 
	C577.863159,179.248154 583.653381,156.900711 589.630920,133.980133 
	C595.859192,156.026062 602.195129,177.390244 607.762451,198.952881 
	C609.054626,203.957840 611.227722,205.784882 616.678345,206.000000 
M304.000000,179.500000 
	C304.000000,162.833191 304.000000,146.166397 304.000000,128.341354 
	C308.088196,136.140808 311.532471,142.805817 315.061401,149.425659 
	C323.684753,165.601974 332.423676,181.717239 340.952606,197.943024 
	C343.928253,203.604004 348.360962,206.209457 354.650696,206.010010 
	C359.977936,205.841064 361.996002,203.859711 361.997162,198.577438 
	C362.003204,170.915466 362.000000,143.253494 362.000000,115.591515 
	C362.000000,114.126053 362.000000,112.660583 362.000000,111.389442 
	C359.641327,111.000931 357.741150,110.531349 355.817932,110.400620 
	C350.128448,110.013885 349.003174,111.131401 349.001190,116.880608 
	C348.997192,128.545288 349.000000,140.209976 349.000000,151.874664 
	C349.000000,162.415070 349.000000,172.955475 349.000000,184.377426 
	C337.434052,162.886139 325.968781,142.466766 315.445862,121.572823 
	C311.495789,113.729729 307.017090,109.800529 297.918762,110.797417 
	C292.852020,111.352570 290.866974,111.825508 290.914581,118.160858 
	C291.116089,144.988129 290.999969,171.817780 291.000031,198.646561 
	C291.000031,205.656174 293.354675,207.513718 300.293823,205.871735 
	C301.503510,205.585480 302.634338,204.966095 304.000000,204.421432 
	C304.000000,196.468414 304.000000,188.484207 304.000000,179.500000 
M651.000366,202.571701 
	C651.725098,207.240707 655.407227,205.809097 658.208984,205.964325 
	C661.218750,206.131042 663.964783,205.941986 665.081482,202.121063 
	C666.831726,196.131821 668.862000,190.210480 671.112671,184.391479 
	C671.652283,182.996170 673.506531,181.173630 674.789307,181.147034 
	C686.751038,180.899017 698.719971,181.000183 710.393311,181.000183 
	C713.014160,188.438828 715.469116,195.538712 718.025757,202.601822 
	C719.134399,205.664490 726.110352,207.603867 730.265930,205.861069 
	C734.364319,204.142242 732.236755,201.309448 731.289856,198.662704 
	C721.159851,170.348679 711.097656,142.010269 700.861206,113.734894 
	C700.390930,112.435890 698.596497,111.248375 697.158813,110.730171 
	C690.383606,108.288101 683.818542,109.982460 682.188049,114.525162 
	C671.760559,143.576920 661.390686,172.649353 651.000366,202.571701 
M418.114258,194.998566 
	C412.936890,194.013931 407.309479,193.992676 402.681976,191.830994 
	C394.666687,188.086761 392.342316,180.107773 392.106354,171.969818 
	C391.715393,158.486938 392.000000,144.984467 392.000000,131.490250 
	C392.000000,124.693512 392.000000,117.896774 392.000000,110.714874 
	C387.459595,110.714874 383.369232,110.714874 379.001038,110.714874 
	C379.001038,133.899780 378.690338,156.378052 379.200226,178.837708 
	C379.343536,185.149673 381.860443,191.420090 386.697327,196.203720 
	C396.235901,205.637314 407.563049,207.551529 420.670410,206.241882 
	C438.211884,204.489166 450.476746,189.749329 450.055237,172.473328 
	C449.766815,160.652100 450.000000,148.818146 450.000000,136.989883 
	C450.000000,128.360748 450.000000,119.731598 450.000000,110.713989 
	C445.461182,110.713989 441.370453,110.713989 437.000000,110.713989 
	C437.000000,130.399292 437.117218,149.373001 436.958160,168.344391 
	C436.854706,180.681839 433.992676,191.770203 418.114258,194.998566 
M505.062805,124.630196 
	C501.021454,131.772644 496.980072,138.915100 492.597565,146.660507 
	C487.353607,137.367004 482.552124,128.898468 477.791626,120.406967 
	C474.474884,114.490852 471.621613,108.291985 462.776703,109.894173 
	C457.990601,110.761139 456.757263,112.418335 459.258301,116.619461 
	C466.826080,129.331421 474.434601,142.019714 481.877167,154.804581 
	C482.551086,155.962250 482.759644,158.097488 482.141479,159.187073 
	C477.812836,166.816681 473.176086,174.270615 468.705139,181.820541 
	C465.063080,187.970856 461.535004,194.188599 457.912842,200.350845 
	C456.688477,202.433823 456.141754,204.211853 458.959412,205.489502 
	C463.769073,207.670425 470.379852,205.695328 472.956421,201.143448 
	C474.716034,198.034760 476.297455,194.825134 478.059967,191.718170 
	C482.585480,183.740707 487.167450,175.795288 492.005676,167.350388 
	C498.464508,178.737701 504.883057,189.282730 510.462585,200.254410 
	C512.835571,204.920731 515.814636,206.603104 520.524780,205.949203 
	C522.687866,205.648926 524.775085,204.802872 526.896729,204.204269 
	C526.222107,201.929276 525.955261,199.420303 524.806091,197.417618 
	C517.770447,185.156372 510.571716,172.987946 503.339172,160.841064 
	C501.603973,157.926834 501.970306,155.547760 503.724030,152.686859 
	C510.944336,140.908020 517.963318,129.004639 524.958740,117.089737 
	C527.494080,112.771477 526.020569,110.419006 521.127136,109.953346 
	C515.974487,109.463036 512.237488,111.040627 509.976715,115.913261 
	C508.681122,118.705589 506.997009,121.317688 505.062805,124.630196 
M770.000000,183.504822 
	C768.765015,173.563629 771.503479,164.724762 776.322693,155.998138 
	C783.314453,143.337479 789.507996,130.232315 795.886780,117.240562 
	C796.897522,115.181976 798.955139,112.568687 795.258850,110.694603 
	C790.432312,108.247490 784.294067,110.086876 782.027954,114.889618 
	C775.790710,128.108612 769.632751,141.364975 763.528015,154.425430 
	C758.373413,143.437561 753.005676,132.507858 748.111938,121.369858 
	C745.206177,114.756454 742.693665,108.469017 733.494690,109.928719 
	C728.934692,110.652298 727.987427,111.680626 729.987366,115.795479 
	C733.151306,122.305305 736.441223,128.753860 739.673279,135.230637 
	C744.625061,145.153702 749.662415,155.035309 754.498352,165.014557 
	C759.760803,175.874130 756.043396,187.470856 756.902893,198.699051 
	C757.428711,205.568314 758.989868,207.270386 765.837402,205.945831 
	C767.209229,205.680481 768.505615,205.025177 770.000000,204.491394 
	C770.000000,197.790237 770.000000,191.146545 770.000000,183.504822 
M493.753815,230.042358 
	C493.170715,230.956635 492.088837,231.866180 492.080048,232.785934 
	C491.966156,244.743179 492.004517,256.701874 492.004517,268.804596 
	C494.150391,268.804596 495.888123,268.804596 497.998993,268.804596 
	C497.998993,259.247284 497.998993,249.875046 497.998993,239.307602 
	C502.728760,247.921051 507.284790,255.259644 510.852081,263.050903 
	C513.236572,268.258789 516.215332,270.306976 521.785645,268.545074 
	C521.785645,255.831345 521.785645,243.076721 521.785645,230.206085 
	C519.831726,230.206085 518.093872,230.206085 515.979980,230.206085 
	C515.979980,239.766968 515.979980,249.131805 515.979980,259.373962 
	C511.362152,250.812607 506.864197,243.252121 503.177032,235.314987 
	C501.282349,231.236435 499.049286,229.274979 493.753815,230.042358 
M559.809021,230.001160 
	C553.940063,231.383148 549.883545,235.151199 548.288208,240.694458 
	C547.095215,244.839813 546.555603,249.527618 547.166199,253.766296 
	C548.582397,263.598083 551.585632,268.552673 561.923950,269.934296 
	C569.513977,270.948669 579.651611,267.357788 581.062195,257.561157 
	C581.569946,254.034180 581.616882,250.443451 582.015015,246.897644 
	C583.274536,235.680573 573.272217,226.623703 559.809021,230.001160 
M650.000549,258.174011 
	C652.269287,266.441223 657.584290,270.185547 667.603088,269.993805 
	C675.412598,269.844360 680.746033,265.885040 682.944885,257.838257 
	C683.912964,254.295303 683.712402,250.427612 683.995056,246.703766 
	C685.067078,232.581512 671.570984,226.161789 659.239746,230.847641 
	C649.986633,234.363831 647.075928,247.821960 650.000549,258.174011 
M730.050903,269.975891 
	C733.025452,268.908142 736.000000,267.840393 739.000000,266.763519 
	C739.000000,263.737030 739.000000,261.080566 739.000000,258.424072 
	C739.000000,245.938370 738.992249,245.861176 726.415283,247.122986 
	C725.190308,247.245880 724.136597,249.075851 723.003357,250.113434 
	C724.213074,251.075516 725.299255,252.548676 726.661926,252.878036 
	C728.629517,253.353607 730.797729,252.999680 732.999817,252.999680 
	C732.999817,255.804474 733.340149,258.034088 732.882263,260.085449 
	C732.567810,261.493835 731.324402,263.540680 730.185364,263.772064 
	C725.380615,264.748108 720.377197,264.292572 717.147095,260.275696 
	C713.256775,255.437622 712.927124,249.555771 714.847778,243.713181 
	C716.572571,238.466248 720.146606,234.867691 725.866760,235.137161 
	C730.110840,235.337112 734.295715,236.793671 739.962769,238.000488 
	C738.585327,235.302170 738.030457,232.103088 736.391907,231.388351 
	C730.728088,228.917679 724.706665,228.609726 718.673279,230.808655 
	C706.387390,235.286392 704.452820,251.842712 709.559937,261.025909 
	C713.851440,268.742615 721.143677,270.250763 730.050903,269.975891 
M465.000000,246.504913 
	C465.000000,242.672165 464.790161,238.824936 465.053497,235.010361 
	C465.377777,230.313171 463.414948,229.110321 458.831238,230.561325 
	C458.831238,235.624680 458.831238,240.713272 458.831238,245.711975 
	C453.020416,245.711975 447.614624,245.711975 441.831482,245.711975 
	C441.831482,240.337219 441.831482,235.246078 441.831482,230.283630 
	C439.703186,230.283630 437.964233,230.283630 436.272583,230.283630 
	C436.272583,243.321609 436.272583,256.074585 436.272583,268.721069 
	C438.289185,268.721069 440.028290,268.721069 442.163605,268.721069 
	C442.163605,263.035828 442.163605,257.619476 442.163605,252.287674 
	C447.979645,252.287674 453.384796,252.287674 459.167175,252.287674 
	C459.167175,257.994080 459.167175,263.418579 459.167175,268.717072 
	C461.295685,268.717072 463.034637,268.717072 465.000000,268.717072 
	C465.000000,261.459045 465.000000,254.480927 465.000000,246.504913 
M344.750244,263.944305 
	C344.431030,259.654999 344.111786,255.365677 343.777557,250.874985 
	C349.034302,250.874985 353.333649,250.874985 357.718353,250.874985 
	C358.544342,247.360153 357.469116,245.769867 353.830963,245.963837 
	C350.593903,246.136429 347.340424,246.000092 344.329773,246.000092 
	C344.329773,241.924393 344.329773,238.523392 344.329773,234.801697 
	C349.743073,234.801697 354.828247,234.801697 359.913391,234.801697 
	C360.190002,234.391998 360.466614,233.982300 360.743225,233.572601 
	C359.476440,232.382187 358.265381,230.241699 356.933319,230.163528 
	C350.707001,229.798080 344.447296,230.001343 338.256805,230.001343 
	C338.256805,243.296387 338.256805,256.010284 338.256805,269.000000 
	C341.968933,269.000000 345.430603,269.000000 348.892242,269.000000 
	C352.508423,269.000000 356.124603,269.000000 359.785919,269.000000 
	C359.785919,267.140778 359.785919,265.739868 359.785919,263.996124 
	C354.958649,263.996124 350.335907,263.996124 344.750244,263.944305 
M392.962433,260.440399 
	C391.974945,257.138031 390.478729,253.890747 390.113770,250.520950 
	C389.495697,244.813889 390.415131,239.220734 396.015045,236.046509 
	C401.428955,232.977707 405.920685,236.094177 410.375641,239.313965 
	C412.936737,235.859314 413.320587,232.431290 408.889954,231.609955 
	C403.640320,230.636749 397.925659,230.286957 392.738647,231.313965 
	C385.414734,232.764069 381.309509,247.583069 383.583130,255.202087 
	C386.816101,266.036133 392.356201,271.293335 401.593201,269.826050 
	C410.127808,268.470306 413.876862,267.023743 411.338501,260.702209 
	C405.487457,262.926392 399.484344,267.194427 392.962433,260.440399 
M779.000000,258.747589 
	C779.562012,256.427917 779.784546,253.954346 780.752747,251.818802 
	C783.202881,246.414261 786.046204,241.189331 788.604370,235.831451 
	C789.394104,234.177322 789.772522,232.326782 790.462341,230.183975 
	C787.943726,230.183975 786.157532,230.183975 784.291565,230.183975 
	C781.669434,235.704239 779.055237,241.207764 776.323669,246.958435 
	C774.187073,242.632523 771.843506,238.758438 770.330872,234.583344 
	C768.772827,230.282913 766.300781,229.001312 761.619568,230.565964 
	C766.375000,243.042007 776.670410,253.882278 772.473999,268.779236 
	C775.197449,268.779236 776.933838,268.779236 779.000000,268.779236 
	C779.000000,265.601562 779.000000,262.639282 779.000000,258.747589 
M302.490570,230.000000 
	C298.006714,230.000031 293.519775,230.102432 289.039948,229.968048 
	C285.384430,229.858368 284.317383,231.401520 285.518036,235.118378 
	C289.219635,235.118378 292.971985,235.118378 297.052795,235.118378 
	C297.052795,246.542709 297.052795,257.599762 297.052795,268.815613 
	C299.140198,268.815613 300.873901,268.815613 303.134216,268.815613 
	C303.134216,257.461700 303.134216,246.279648 303.134216,234.758636 
	C307.413513,234.758636 311.166016,234.758636 315.087402,234.758636 
	C314.964783,232.982101 314.867828,231.577774 314.758911,230.000000 
	C310.755310,230.000000 307.119202,230.000000 302.490570,230.000000 
M615.549194,269.000000 
	C619.646973,269.000000 623.744751,269.000000 627.734741,269.000000 
	C627.734741,267.046295 627.734741,265.646240 627.734741,263.878967 
	C623.076233,263.878967 618.669250,263.878967 613.941406,263.878967 
	C613.941406,252.448456 613.941406,241.396622 613.941406,230.182404 
	C611.861755,230.182404 610.128662,230.182404 608.317871,230.182404 
	C608.317871,243.192749 608.317871,256.018738 608.317871,269.000000 
	C610.612610,269.000000 612.590454,269.000000 615.549194,269.000000 
z"/>
<path fill="#FF8A00" opacity="1.000000" stroke="none" 
	d="
M101.001572,161.001282 
	C101.460747,152.373459 100.133339,144.267014 103.760315,136.229538 
	C109.527168,123.450043 118.729919,114.733093 132.405579,113.294708 
	C147.684082,111.687737 163.199432,112.323021 178.612183,112.004700 
	C197.463272,111.615356 215.527191,114.771080 231.245804,125.798561 
	C250.529007,139.326797 265.512146,156.707382 267.652222,180.912827 
	C269.635406,203.343506 269.438599,226.060883 268.692627,248.602081 
	C268.275146,261.218628 257.063934,275.903717 239.638107,279.917084 
	C236.477951,280.644897 233.153519,280.945190 229.903687,280.953461 
	C199.924362,281.029816 169.942490,280.773010 139.966019,281.075073 
	C118.772476,281.288635 100.290085,262.824402 100.832436,241.941467 
	C101.528389,215.144562 101.001579,188.315903 101.001572,161.001282 
M265.970459,229.105743 
	C265.952942,227.064865 265.935425,225.023972 265.964355,222.049011 
	C265.976196,212.227966 266.154724,202.403061 265.926422,192.587601 
	C265.819275,187.981995 265.274445,183.322296 264.332001,178.811630 
	C260.395721,159.972687 249.929092,145.129410 235.376938,132.998672 
	C223.576614,123.161873 209.851578,116.949730 194.603104,116.245651 
	C175.002274,115.340584 155.324524,115.759880 135.689667,116.128937 
	C129.283905,116.249329 122.930794,118.045868 118.090378,123.920296 
	C116.044075,125.931526 113.997772,127.942757 111.359039,130.285461 
	C109.577255,133.857925 107.795471,137.430389 105.434448,141.527954 
	C102.574745,153.941940 103.186531,165.856995 110.014534,177.076553 
	C118.274223,190.648636 127.899956,203.103424 140.492554,212.868713 
	C168.076462,234.259445 199.466461,245.596481 234.340424,246.907089 
	C242.104752,247.198868 249.912582,246.069260 257.700378,246.069458 
	C267.039215,246.069702 265.946625,245.747803 265.995972,237.479813 
	C265.998962,236.980148 265.980469,236.480331 265.985535,235.125900 
	C265.970520,233.410187 265.955505,231.694489 265.970459,229.105743 
z"/>
<path fill="#FFFFFF" opacity="1.000000" stroke="none" 
	d="
M616.233276,205.999969 
	C611.227722,205.784882 609.054626,203.957840 607.762451,198.952881 
	C602.195129,177.390244 595.859192,156.026062 589.630920,133.980133 
	C583.653381,156.900711 577.863159,179.248154 571.914062,201.553223 
	C571.558105,202.887848 570.089172,204.638367 568.866394,204.893600 
	C565.388672,205.619476 561.657654,206.324417 558.250366,205.737427 
	C556.281433,205.398239 553.773621,202.835312 553.165100,200.782181 
	C547.242432,180.799286 541.655396,160.716690 536.004944,140.653442 
	C533.524780,131.846985 531.071716,123.032013 528.749390,114.183357 
	C528.506653,113.258469 528.893005,111.706207 529.572571,111.078560 
	C533.237793,107.693588 541.635803,110.087822 542.986511,114.956963 
	C546.417175,127.324104 549.659973,139.743271 553.004822,152.134354 
	C556.140930,163.751801 559.307495,175.361023 562.491577,186.965393 
	C562.560120,187.215256 563.002563,187.362549 563.566650,187.773346 
	C568.733215,167.570236 573.875732,147.504379 578.989014,127.431114 
	C580.059998,123.227051 581.043396,119.000267 582.030701,114.775452 
	C582.917908,110.978714 585.631042,109.951759 589.100098,109.998055 
	C592.774597,110.047096 596.676025,109.276726 598.031616,114.402946 
	C601.927795,129.136108 605.980408,143.828079 610.008118,158.526230 
	C612.760803,168.571732 615.574829,178.600418 618.658508,189.706482 
	C622.270813,175.768112 625.607849,162.776154 629.009277,149.801041 
	C632.144348,137.842056 635.309692,125.890648 638.547546,113.959206 
	C639.432251,110.699226 644.501465,108.901115 649.062927,110.027412 
	C653.348572,111.085594 652.495911,114.698189 651.810425,117.167206 
	C647.307861,133.384628 642.424255,149.495789 637.743225,165.664261 
	C634.754944,175.985580 631.758667,186.308411 629.031616,196.700302 
	C626.827026,205.101730 625.878174,205.999054 616.233276,205.999969 
z"/>
<path fill="#FFFFFF" opacity="1.000000" stroke="none" 
	d="
M304.000000,180.000000 
	C304.000000,188.484207 304.000000,196.468414 304.000000,204.421432 
	C302.634338,204.966095 301.503510,205.585480 300.293823,205.871735 
	C293.354675,207.513718 291.000031,205.656174 291.000031,198.646561 
	C290.999969,171.817780 291.116089,144.988129 290.914581,118.160858 
	C290.866974,111.825508 292.852020,111.352570 297.918762,110.797417 
	C307.017090,109.800529 311.495789,113.729729 315.445862,121.572823 
	C325.968781,142.466766 337.434052,162.886139 349.000000,184.377426 
	C349.000000,172.955475 349.000000,162.415070 349.000000,151.874664 
	C349.000000,140.209976 348.997192,128.545288 349.001190,116.880608 
	C349.003174,111.131401 350.128448,110.013885 355.817932,110.400620 
	C357.741150,110.531349 359.641327,111.000931 362.000000,111.389442 
	C362.000000,112.660583 362.000000,114.126053 362.000000,115.591515 
	C362.000000,143.253494 362.003204,170.915466 361.997162,198.577438 
	C361.996002,203.859711 359.977936,205.841064 354.650696,206.010010 
	C348.360962,206.209457 343.928253,203.604004 340.952606,197.943024 
	C332.423676,181.717239 323.684753,165.601974 315.061401,149.425659 
	C311.532471,142.805817 308.088196,136.140808 304.000000,128.341354 
	C304.000000,146.166397 304.000000,162.833191 304.000000,180.000000 
z"/>
<path fill="#FFFFFF" opacity="1.000000" stroke="none" 
	d="
M651.001099,202.143341 
	C661.390686,172.649353 671.760559,143.576920 682.188049,114.525162 
	C683.818542,109.982460 690.383606,108.288101 697.158813,110.730171 
	C698.596497,111.248375 700.390930,112.435890 700.861206,113.734894 
	C711.097656,142.010269 721.159851,170.348679 731.289856,198.662704 
	C732.236755,201.309448 734.364319,204.142242 730.265930,205.861069 
	C726.110352,207.603867 719.134399,205.664490 718.025757,202.601822 
	C715.469116,195.538712 713.014160,188.438828 710.393311,181.000183 
	C698.719971,181.000183 686.751038,180.899017 674.789307,181.147034 
	C673.506531,181.173630 671.652283,182.996170 671.112671,184.391479 
	C668.862000,190.210480 666.831726,196.131821 665.081482,202.121063 
	C663.964783,205.941986 661.218750,206.131042 658.208984,205.964325 
	C655.407227,205.809097 651.725098,207.240707 651.001099,202.143341 
M685.038879,142.663651 
	C682.014465,151.653976 678.990051,160.644302 675.905090,169.814606 
	C686.477844,169.814606 696.507446,169.814606 706.690430,169.814606 
	C701.581726,155.307587 696.549255,141.017136 691.516846,126.726685 
	C691.174622,126.830391 690.832458,126.934090 690.490295,127.037788 
	C688.829407,132.023331 687.168518,137.008865 685.038879,142.663651 
z"/>
<path fill="#FFFFFF" opacity="1.000000" stroke="none" 
	d="
M418.558228,194.988876 
	C433.992676,191.770203 436.854706,180.681839 436.958160,168.344391 
	C437.117218,149.373001 437.000000,130.399292 437.000000,110.713989 
	C441.370453,110.713989 445.461182,110.713989 450.000000,110.713989 
	C450.000000,119.731598 450.000000,128.360748 450.000000,136.989883 
	C450.000000,148.818146 449.766815,160.652100 450.055237,172.473328 
	C450.476746,189.749329 438.211884,204.489166 420.670410,206.241882 
	C407.563049,207.551529 396.235901,205.637314 386.697327,196.203720 
	C381.860443,191.420090 379.343536,185.149673 379.200226,178.837708 
	C378.690338,156.378052 379.001038,133.899780 379.001038,110.714874 
	C383.369232,110.714874 387.459595,110.714874 392.000000,110.714874 
	C392.000000,117.896774 392.000000,124.693512 392.000000,131.490250 
	C392.000000,144.984467 391.715393,158.486938 392.106354,171.969818 
	C392.342316,180.107773 394.666687,188.086761 402.681976,191.830994 
	C407.309479,193.992676 412.936890,194.013931 418.558228,194.988876 
z"/>
<path fill="#FF8800" opacity="1.000000" stroke="none" 
	d="
M505.275330,124.320572 
	C506.997009,121.317688 508.681122,118.705589 509.976715,115.913261 
	C512.237488,111.040627 515.974487,109.463036 521.127136,109.953346 
	C526.020569,110.419006 527.494080,112.771477 524.958740,117.089737 
	C517.963318,129.004639 510.944336,140.908020 503.724030,152.686859 
	C501.970306,155.547760 501.603973,157.926834 503.339172,160.841064 
	C510.571716,172.987946 517.770447,185.156372 524.806091,197.417618 
	C525.955261,199.420303 526.222107,201.929276 526.896729,204.204285 
	C524.775085,204.802872 522.687866,205.648926 520.524780,205.949203 
	C515.814636,206.603104 512.835571,204.920731 510.462585,200.254410 
	C504.883057,189.282730 498.464508,178.737701 492.005676,167.350388 
	C487.167450,175.795288 482.585480,183.740707 478.059967,191.718170 
	C476.297455,194.825134 474.716034,198.034760 472.956421,201.143448 
	C470.379852,205.695328 463.769073,207.670425 458.959412,205.489502 
	C456.141754,204.211853 456.688477,202.433823 457.912842,200.350845 
	C461.535004,194.188599 465.063080,187.970856 468.705139,181.820541 
	C473.176086,174.270615 477.812836,166.816681 482.141479,159.187073 
	C482.759644,158.097488 482.551086,155.962250 481.877167,154.804581 
	C474.434601,142.019714 466.826080,129.331421 459.258301,116.619461 
	C456.757263,112.418335 457.990601,110.761139 462.776703,109.894173 
	C471.621613,108.291985 474.474884,114.490852 477.791626,120.406967 
	C482.552124,128.898468 487.353607,137.367004 492.597565,146.660507 
	C496.980072,138.915100 501.021454,131.772644 505.275330,124.320572 
z"/>
<path fill="#FFFFFF" opacity="1.000000" stroke="none" 
	d="
M770.000000,184.003830 
	C770.000000,191.146545 770.000000,197.790237 770.000000,204.491394 
	C768.505615,205.025177 767.209229,205.680481 765.837402,205.945831 
	C758.989868,207.270386 757.428711,205.568314 756.902893,198.699051 
	C756.043396,187.470856 759.760803,175.874130 754.498352,165.014557 
	C749.662415,155.035309 744.625061,145.153702 739.673279,135.230637 
	C736.441223,128.753860 733.151306,122.305305 729.987366,115.795479 
	C727.987427,111.680626 728.934692,110.652298 733.494690,109.928719 
	C742.693665,108.469017 745.206177,114.756454 748.111938,121.369858 
	C753.005676,132.507858 758.373413,143.437561 763.528015,154.425430 
	C769.632751,141.364975 775.790710,128.108612 782.027954,114.889618 
	C784.294067,110.086876 790.432312,108.247490 795.258850,110.694603 
	C798.955139,112.568687 796.897522,115.181976 795.886780,117.240562 
	C789.507996,130.232315 783.314453,143.337479 776.322693,155.998138 
	C771.503479,164.724762 768.765015,173.563629 770.000000,184.003830 
z"/>
<path fill="#FFFFFF" opacity="1.000000" stroke="none" 
	d="
M494.194824,230.022827 
	C499.049286,229.274979 501.282349,231.236435 503.177032,235.314987 
	C506.864197,243.252121 511.362152,250.812607 515.979980,259.373962 
	C515.979980,249.131805 515.979980,239.766968 515.979980,230.206085 
	C518.093872,230.206085 519.831726,230.206085 521.785645,230.206085 
	C521.785645,243.076721 521.785645,255.831345 521.785645,268.545074 
	C516.215332,270.306976 513.236572,268.258789 510.852081,263.050903 
	C507.284790,255.259644 502.728760,247.921051 497.998993,239.307602 
	C497.998993,249.875046 497.998993,259.247284 497.998993,268.804596 
	C495.888123,268.804596 494.150391,268.804596 492.004517,268.804596 
	C492.004517,256.701874 491.966156,244.743179 492.080048,232.785934 
	C492.088837,231.866180 493.170715,230.956635 494.194824,230.022827 
z"/>
<path fill="#FFFFFF" opacity="1.000000" stroke="none" 
	d="
M560.226929,230.000488 
	C573.272217,226.623703 583.274536,235.680573 582.015015,246.897644 
	C581.616882,250.443451 581.569946,254.034180 581.062195,257.561157 
	C579.651611,267.357788 569.513977,270.948669 561.923950,269.934296 
	C551.585632,268.552673 548.582397,263.598083 547.166199,253.766296 
	C546.555603,249.527618 547.095215,244.839813 548.288208,240.694458 
	C549.883545,235.151199 553.940063,231.383148 560.226929,230.000488 
M566.200134,263.999969 
	C571.303467,263.575317 574.405029,260.702118 574.906982,255.758026 
	C575.355225,251.343246 575.599365,246.742386 574.854248,242.409225 
	C573.631409,235.297928 564.235535,232.489609 558.507751,236.957458 
	C554.559021,240.037598 554.186768,244.287277 553.693970,248.705185 
	C552.618286,258.346588 556.833923,263.981659 566.200134,263.999969 
z"/>
<path fill="#FFFFFF" opacity="1.000000" stroke="none" 
	d="
M649.997437,257.746613 
	C647.075928,247.821960 649.986633,234.363831 659.239746,230.847641 
	C671.570984,226.161789 685.067078,232.581512 683.995056,246.703766 
	C683.712402,250.427612 683.912964,254.295303 682.944885,257.838257 
	C680.746033,265.885040 675.412598,269.844360 667.603088,269.993805 
	C657.584290,270.185547 652.269287,266.441223 649.997437,257.746613 
M664.800110,263.999969 
	C670.026184,264.607330 674.855713,263.286194 676.279846,257.966217 
	C677.476929,253.494232 676.993408,248.530045 676.968994,243.785233 
	C676.944519,239.041000 673.934753,236.134155 669.723816,235.125977 
	C665.115540,234.022690 660.554138,235.229431 658.130066,239.610580 
	C656.641418,242.301147 656.178650,245.675186 655.743835,248.810074 
	C654.687622,256.423981 657.798218,261.950439 664.800110,263.999969 
z"/>
<path fill="#FFFFFF" opacity="1.000000" stroke="none" 
	d="
M729.608032,269.987122 
	C721.143677,270.250763 713.851440,268.742615 709.559937,261.025909 
	C704.452820,251.842712 706.387390,235.286392 718.673279,230.808655 
	C724.706665,228.609726 730.728088,228.917679 736.391907,231.388351 
	C738.030457,232.103088 738.585327,235.302170 739.962769,238.000488 
	C734.295715,236.793671 730.110840,235.337112 725.866760,235.137161 
	C720.146606,234.867691 716.572571,238.466248 714.847778,243.713181 
	C712.927124,249.555771 713.256775,255.437622 717.147095,260.275696 
	C720.377197,264.292572 725.380615,264.748108 730.185364,263.772064 
	C731.324402,263.540680 732.567810,261.493835 732.882263,260.085449 
	C733.340149,258.034088 732.999817,255.804474 732.999817,252.999680 
	C730.797729,252.999680 728.629517,253.353607 726.661926,252.878036 
	C725.299255,252.548676 724.213074,251.075516 723.003357,250.113434 
	C724.136597,249.075851 725.190308,247.245880 726.415283,247.122986 
	C738.992249,245.861176 739.000000,245.938370 739.000000,258.424072 
	C739.000000,261.080566 739.000000,263.737030 739.000000,266.763519 
	C736.000000,267.840393 733.025452,268.908142 729.608032,269.987122 
z"/>
<path fill="#FFFFFF" opacity="1.000000" stroke="none" 
	d="
M465.000000,247.003860 
	C465.000000,254.480927 465.000000,261.459045 465.000000,268.717072 
	C463.034637,268.717072 461.295685,268.717072 459.167175,268.717072 
	C459.167175,263.418579 459.167175,257.994080 459.167175,252.287674 
	C453.384796,252.287674 447.979645,252.287674 442.163605,252.287674 
	C442.163605,257.619476 442.163605,263.035828 442.163605,268.721069 
	C440.028290,268.721069 438.289185,268.721069 436.272583,268.721069 
	C436.272583,256.074585 436.272583,243.321609 436.272583,230.283630 
	C437.964233,230.283630 439.703186,230.283630 441.831482,230.283630 
	C441.831482,235.246078 441.831482,240.337219 441.831482,245.711975 
	C447.614624,245.711975 453.020416,245.711975 458.831238,245.711975 
	C458.831238,240.713272 458.831238,235.624680 458.831238,230.561325 
	C463.414948,229.110321 465.377777,230.313171 465.053497,235.010361 
	C464.790161,238.824936 465.000000,242.672165 465.000000,247.003860 
z"/>
<path fill="#FFFFFF" opacity="1.000000" stroke="none" 
	d="
M345.231689,263.970215 
	C350.335907,263.996124 354.958649,263.996124 359.785919,263.996124 
	C359.785919,265.739868 359.785919,267.140778 359.785919,269.000000 
	C356.124603,269.000000 352.508423,269.000000 348.892242,269.000000 
	C345.430603,269.000000 341.968933,269.000000 338.256805,269.000000 
	C338.256805,256.010284 338.256805,243.296387 338.256805,230.001343 
	C344.447296,230.001343 350.707001,229.798080 356.933319,230.163528 
	C358.265381,230.241699 359.476440,232.382187 360.743225,233.572601 
	C360.466614,233.982300 360.190002,234.391998 359.913391,234.801697 
	C354.828247,234.801697 349.743073,234.801697 344.329773,234.801697 
	C344.329773,238.523392 344.329773,241.924393 344.329773,246.000092 
	C347.340424,246.000092 350.593903,246.136429 353.830963,245.963837 
	C357.469116,245.769867 358.544342,247.360153 357.718353,250.874985 
	C353.333649,250.874985 349.034302,250.874985 343.777557,250.874985 
	C344.111786,255.365677 344.431030,259.654999 345.231689,263.970215 
z"/>
<path fill="#FFFFFF" opacity="1.000000" stroke="none" 
	d="
M393.237823,260.724030 
	C399.484344,267.194427 405.487457,262.926392 411.338501,260.702209 
	C413.876862,267.023743 410.127808,268.470306 401.593201,269.826050 
	C392.356201,271.293335 386.816101,266.036133 383.583130,255.202087 
	C381.309509,247.583069 385.414734,232.764069 392.738647,231.313965 
	C397.925659,230.286957 403.640320,230.636749 408.889954,231.609955 
	C413.320587,232.431290 412.936737,235.859314 410.375641,239.313965 
	C405.920685,236.094177 401.428955,232.977707 396.015045,236.046509 
	C390.415131,239.220734 389.495697,244.813889 390.113770,250.520950 
	C390.478729,253.890747 391.974945,257.138031 393.237823,260.724030 
z"/>
<path fill="#FFFFFF" opacity="1.000000" stroke="none" 
	d="
M779.000000,259.212280 
	C779.000000,262.639282 779.000000,265.601562 779.000000,268.779236 
	C776.933838,268.779236 775.197449,268.779236 772.473999,268.779236 
	C776.670410,253.882278 766.375000,243.042007 761.619568,230.565964 
	C766.300781,229.001312 768.772827,230.282913 770.330872,234.583344 
	C771.843506,238.758438 774.187073,242.632523 776.323669,246.958435 
	C779.055237,241.207764 781.669434,235.704239 784.291565,230.183975 
	C786.157532,230.183975 787.943726,230.183975 790.462341,230.183975 
	C789.772522,232.326782 789.394104,234.177322 788.604370,235.831451 
	C786.046204,241.189331 783.202881,246.414261 780.752747,251.818802 
	C779.784546,253.954346 779.562012,256.427917 779.000000,259.212280 
z"/>
<path fill="#FFFFFF" opacity="1.000000" stroke="none" 
	d="
M302.986816,230.000000 
	C307.119202,230.000000 310.755310,230.000000 314.758911,230.000000 
	C314.867828,231.577774 314.964783,232.982101 315.087402,234.758636 
	C311.166016,234.758636 307.413513,234.758636 303.134216,234.758636 
	C303.134216,246.279648 303.134216,257.461700 303.134216,268.815613 
	C300.873901,268.815613 299.140198,268.815613 297.052795,268.815613 
	C297.052795,257.599762 297.052795,246.542709 297.052795,235.118378 
	C292.971985,235.118378 289.219635,235.118378 285.518036,235.118378 
	C284.317383,231.401520 285.384430,229.858368 289.039948,229.968048 
	C293.519775,230.102432 298.006714,230.000031 302.986816,230.000000 
z"/>
<path fill="#FFFFFF" opacity="1.000000" stroke="none" 
	d="
M615.058716,269.000000 
	C612.590454,269.000000 610.612610,269.000000 608.317871,269.000000 
	C608.317871,256.018738 608.317871,243.192749 608.317871,230.182404 
	C610.128662,230.182404 611.861755,230.182404 613.941406,230.182404 
	C613.941406,241.396622 613.941406,252.448456 613.941406,263.878967 
	C618.669250,263.878967 623.076233,263.878967 627.734741,263.878967 
	C627.734741,265.646240 627.734741,267.046295 627.734741,269.000000 
	C623.744751,269.000000 619.646973,269.000000 615.058716,269.000000 
z"/>
<path fill="#FBD513" opacity="1.000000" stroke="none" 
	d="
M118.770363,123.848038 
	C122.930794,118.045868 129.283905,116.249329 135.689667,116.128937 
	C155.324524,115.759880 175.002274,115.340584 194.603104,116.245651 
	C209.851578,116.949730 223.576614,123.161873 235.376938,132.998672 
	C249.929092,145.129410 260.395721,159.972687 264.332001,178.811630 
	C265.274445,183.322296 265.819275,187.981995 265.926422,192.587601 
	C266.154724,202.403061 265.976196,212.227966 265.504517,222.522186 
	C254.042740,223.330536 243.038879,223.985992 232.039261,223.921387 
	C217.688660,223.837097 203.884048,220.358780 190.456451,215.552887 
	C187.383942,214.453186 184.807159,211.968414 182.437256,210.089615 
	C189.018219,210.607941 194.083191,208.743835 197.118515,203.115433 
	C199.789230,198.163086 199.443680,193.170807 196.146790,188.587341 
	C192.819946,183.962234 188.112503,182.306900 182.593231,183.196167 
	C176.484955,184.180344 172.788254,188.522018 171.301239,193.871689 
	C169.746567,199.464722 172.432053,204.364944 176.640656,207.991241 
	C173.795425,207.097641 170.944885,206.728149 168.962555,205.218521 
	C160.298874,198.620880 151.037964,192.506638 143.563766,184.711624 
	C128.787170,169.300858 120.193520,150.755569 119.948273,128.912552 
	C119.929276,127.220184 119.180145,125.536018 118.770363,123.848038 
M252.266678,190.167999 
	C250.149979,153.498672 212.896606,121.198479 171.991211,130.717422 
	C172.007095,137.440323 174.311218,140.686127 180.560059,142.153442 
	C183.117661,142.754013 185.912796,142.391159 188.439407,143.066681 
	C196.226120,145.148621 204.662140,146.212692 211.533920,150.032455 
	C229.691620,160.125626 238.489548,176.424515 239.015961,197.220474 
	C239.229538,205.657135 243.181656,209.627808 252.411728,209.740082 
	C252.411728,203.525024 252.411728,197.290451 252.266678,190.167999 
M195.413193,171.835739 
	C206.101761,176.789642 211.574173,185.147537 212.023560,196.928146 
	C212.315063,204.569916 216.019333,208.720261 223.133911,209.792648 
	C229.073242,196.768753 225.073624,179.130280 213.605286,167.771149 
	C202.361954,156.634888 184.486008,152.717361 171.892532,158.629776 
	C172.484848,165.899277 176.218018,169.142853 184.421555,169.878860 
	C187.865875,170.187881 191.268967,170.956650 195.413193,171.835739 
z"/>
<path fill="#FEA507" opacity="1.000000" stroke="none" 
	d="
M265.971985,235.980591 
	C265.980469,236.480331 265.998962,236.980148 265.995972,237.479813 
	C265.946625,245.747803 267.039215,246.069702 257.700378,246.069458 
	C249.912582,246.069260 242.104752,247.198868 234.340424,246.907089 
	C199.466461,245.596481 168.076462,234.259445 140.492554,212.868713 
	C127.899956,203.103424 118.274223,190.648636 110.014534,177.076553 
	C103.186531,165.856995 102.574745,153.941940 106.051414,141.446228 
	C108.019150,146.082092 109.165131,150.869965 110.756424,155.504959 
	C117.374756,174.782379 128.543365,190.831009 144.262756,203.961365 
	C159.699463,216.855606 176.953064,226.262573 196.239334,231.373901 
	C207.507492,234.360229 219.263306,236.175156 230.901184,236.909622 
	C242.525604,237.643250 254.276520,236.372589 265.971985,235.980591 
z"/>
<path fill="#FDCA10" opacity="1.000000" stroke="none" 
	d="
M182.002243,210.121078 
	C184.807159,211.968414 187.383942,214.453186 190.456451,215.552887 
	C203.884048,220.358780 217.688660,223.837097 232.039261,223.921387 
	C243.038879,223.985992 254.042740,223.330536 265.481323,222.989227 
	C265.935425,225.023972 265.952942,227.064865 265.521820,229.550064 
	C263.909485,230.018280 262.745697,230.066177 261.582092,230.062439 
	C246.535004,230.014053 231.286316,231.495209 216.486801,229.553955 
	C192.691238,226.432648 170.857605,217.062134 151.781647,202.150421 
	C133.907837,188.178421 121.117661,170.574280 115.346085,148.388977 
	C113.777054,142.357788 113.059700,136.105042 111.951469,129.953979 
	C113.997772,127.942757 116.044075,125.931526 118.430374,123.884171 
	C119.180145,125.536018 119.929276,127.220184 119.948273,128.912552 
	C120.193520,150.755569 128.787170,169.300858 143.563766,184.711624 
	C151.037964,192.506638 160.298874,198.620880 168.962555,205.218521 
	C170.944885,206.728149 173.795425,207.097641 176.971588,208.061279 
	C179.131927,208.794144 180.567093,209.457611 182.002243,210.121078 
z"/>
<path fill="#FEBA0C" opacity="1.000000" stroke="none" 
	d="
M111.655258,130.119720 
	C113.059700,136.105042 113.777054,142.357788 115.346085,148.388977 
	C121.117661,170.574280 133.907837,188.178421 151.781647,202.150421 
	C170.857605,217.062134 192.691238,226.432648 216.486801,229.553955 
	C231.286316,231.495209 246.535004,230.014053 261.582092,230.062439 
	C262.745697,230.066177 263.909485,230.018280 265.506836,229.986572 
	C265.955505,231.694489 265.970520,233.410187 265.978760,235.553238 
	C254.276520,236.372589 242.525604,237.643250 230.901184,236.909622 
	C219.263306,236.175156 207.507492,234.360229 196.239334,231.373901 
	C176.953064,226.262573 159.699463,216.855606 144.262756,203.961365 
	C128.543365,190.831009 117.374756,174.782379 110.756424,155.504959 
	C109.165131,150.869965 108.019150,146.082092 106.341034,141.183685 
	C107.795471,137.430389 109.577255,133.857925 111.655258,130.119720 
z"/>
<path fill="#000000" opacity="1.000000" stroke="none" 
	d="
M685.273315,142.329025 
	C687.168518,137.008865 688.829407,132.023331 690.490295,127.037788 
	C690.832458,126.934090 691.174622,126.830391 691.516846,126.726685 
	C696.549255,141.017136 701.581726,155.307587 706.690430,169.814606 
	C696.507446,169.814606 686.477844,169.814606 675.905090,169.814606 
	C678.990051,160.644302 682.014465,151.653976 685.273315,142.329025 
z"/>
<path fill="#000000" opacity="1.000000" stroke="none" 
	d="
M565.773560,264.000000 
	C556.833923,263.981659 552.618286,258.346588 553.693970,248.705185 
	C554.186768,244.287277 554.559021,240.037598 558.507751,236.957458 
	C564.235535,232.489609 573.631409,235.297928 574.854248,242.409225 
	C575.599365,246.742386 575.355225,251.343246 574.906982,255.758026 
	C574.405029,260.702118 571.303467,263.575317 565.773560,264.000000 
z"/>
<path fill="#000000" opacity="1.000000" stroke="none" 
	d="
M664.374878,263.999512 
	C657.798218,261.950439 654.687622,256.423981 655.743835,248.810074 
	C656.178650,245.675186 656.641418,242.301147 658.130066,239.610580 
	C660.554138,235.229431 665.115540,234.022690 669.723816,235.125977 
	C673.934753,236.134155 676.944519,239.041000 676.968994,243.785233 
	C676.993408,248.530045 677.476929,253.494232 676.279846,257.966217 
	C674.855713,263.286194 670.026184,264.607330 664.374878,263.999512 
z"/>
<path fill="#31272D" opacity="1.000000" stroke="none" 
	d="
M252.339203,190.611938 
	C252.411728,197.290451 252.411728,203.525024 252.411728,209.740082 
	C243.181656,209.627808 239.229538,205.657135 239.015961,197.220474 
	C238.489548,176.424515 229.691620,160.125626 211.533920,150.032455 
	C204.662140,146.212692 196.226120,145.148621 188.439407,143.066681 
	C185.912796,142.391159 183.117661,142.754013 180.560059,142.153442 
	C174.311218,140.686127 172.007095,137.440323 171.991211,130.717422 
	C212.896606,121.198479 250.149979,153.498672 252.339203,190.611938 
z"/>
<path fill="#31272D" opacity="1.000000" stroke="none" 
	d="
M195.052002,171.676086 
	C191.268967,170.956650 187.865875,170.187881 184.421555,169.878860 
	C176.218018,169.142853 172.484848,165.899277 171.892532,158.629776 
	C184.486008,152.717361 202.361954,156.634888 213.605286,167.771149 
	C225.073624,179.130280 229.073242,196.768753 223.133911,209.792648 
	C216.019333,208.720261 212.315063,204.569916 212.023560,196.928146 
	C211.574173,185.147537 206.101761,176.789642 195.052002,171.676086 
z"/>
<path fill="#31272D" opacity="1.000000" stroke="none" 
	d="
M182.437256,210.089615 
	C180.567093,209.457611 179.131927,208.794144 177.365845,208.060638 
	C172.432053,204.364944 169.746567,199.464722 171.301239,193.871689 
	C172.788254,188.522018 176.484955,184.180344 182.593231,183.196167 
	C188.112503,182.306900 192.819946,183.962234 196.146790,188.587341 
	C199.443680,193.170807 199.789230,198.163086 197.118515,203.115433 
	C194.083191,208.743835 189.018219,210.607941 182.437256,210.089615 
z"/>
</svg>